<svg xmlns="http://www.w3.org/2000/svg" width="96" height="72" fill="none" viewBox="0 0 96 72"><ellipse cx="48" cy="65" fill="#293681" opacity=".08" rx="38" ry="4"/><path fill="#f2e6d0" d="M18 36h42v26a2 2 0 0 1-2 2H20a2 2 0 0 1-2-2z"/><path fill="#c96f4a" d="M12 38 L39 16 L66 38 L61 43 L39 25 L17 43 Z"/><path fill="#e0cfae" d="M60 44h24v18a2 2 0 0 1-2 2H60z"/><path fill="#a85539" d="M56 44h30v-5H56z"/><rect width="10" height="16" x="34" y="48" fill="#8f5b33" rx="1.5"/><rect width="9" height="8" x="22" y="44" fill="#95ccdd" rx="1"/><rect width="9" height="8" x="47" y="44" fill="#95ccdd" rx="1"/><rect width="14" height="12" x="65" y="50" fill="#93a1b3" rx="1"/><path stroke="#6b7a8f" stroke-width="1.4" d="M65 54h14m-14 4h14"/><circle cx="14" cy="50" r="9" fill="#4e8e6e"/><rect width="4" height="12" x="12" y="54" fill="#8f5b33" rx="1"/></svg>
