<svg xmlns="http://www.w3.org/2000/svg" width="320" height="240" fill="none" viewBox="0 0 320 240"><circle cx="160" cy="114" r="88" fill="#d0e7e6" opacity=".4"/><ellipse cx="160" cy="202" fill="#293681" opacity=".08" rx="92" ry="10"/><g transform="rotate(-10 140 120)"><rect width="128" height="80" x="76" y="80" fill="#95ccdd" rx="12"/><path fill="#7fb7cb" d="M76 94h128v14H76z"/></g><rect width="136" height="84" x="112" y="98" fill="#4274d9" rx="12"/><path fill="#293681" d="M112 112h136v16H112z"/><path fill="#fff" d="M156 98h30l-44 84h-24a12 12 0 0 1-3-1z" opacity=".08"/><rect width="26" height="19" x="126" y="140" fill="#e8b54d" stroke="#c08a2e" stroke-width="1.5" rx="4"/><path stroke="#c08a2e" stroke-width="1.2" d="M126 149.5h26M139 140v19"/><g fill="#bfe0ea"><circle cx="130" cy="170" r="2.2"/><circle cx="137" cy="170" r="2.2"/><circle cx="144" cy="170" r="2.2"/><circle cx="151" cy="170" r="2.2"/><circle cx="164" cy="170" r="2.2"/><circle cx="171" cy="170" r="2.2"/><circle cx="178" cy="170" r="2.2"/><circle cx="185" cy="170" r="2.2"/></g><path stroke="#bfe0ea" stroke-linecap="round" stroke-width="2.6" d="M222 140a10 10 0 0 1 0 14m7-20a17 17 0 0 1 0 26"/><text x="240" y="174" fill="#bfe0ea" font-family="system-ui, sans-serif" font-size="14" font-weight="700" text-anchor="end">₹</text><g transform="translate(256 84)"><circle r="14" fill="#e8b54d" stroke="#c08a2e" stroke-width="2.2"/><circle r="9.4" stroke="#f2d28a" stroke-width="1.4"/><text y="4.5" fill="#6b4e16" font-family="system-ui, sans-serif" font-size="12" font-weight="700" text-anchor="middle">₹</text></g><path fill="#95ccdd" d="m72 76 3 7 7 3-7 3-3 7-3-7-7-3 7-3z"/><circle cx="258" cy="134" r="3" fill="#95ccdd"/><circle cx="62" cy="142" r="2.5" fill="#95ccdd" opacity=".7"/></svg>
