<svg xmlns="http://www.w3.org/2000/svg" width="320" height="240" fill="none" viewBox="0 0 320 240"><defs><filter id="vlS" width="180%" height="180%" x="-40%" y="-40%"><feGaussianBlur stdDeviation="5"/></filter></defs><circle cx="160" cy="112" r="90" fill="#d0e7e6" opacity=".4"/><ellipse cx="160" cy="200" fill="#293681" filter="url(#vlS)" opacity=".1" rx="100" ry="12"/><path stroke="#2a2e37" stroke-dasharray="2 12" stroke-linecap="round" stroke-width="3" d="M66 199h188" opacity=".45"/><rect width="90" height="46" x="150" y="120" fill="#c9c2ac" rx="4"/><path fill="#4274d9" d="M110 138a10 10 0 0 1 10-10h30v38h-46z"/><rect width="20" height="16" x="122" y="134" fill="#bfe0ea" rx="2"/><rect width="8" height="10" x="106" y="150" fill="#f6e7a6" rx="2"/><circle cx="140" cy="178" r="15" fill="#2a2e37"/><circle cx="140" cy="178" r="6.5" fill="#9aa3ae"/><circle cx="212" cy="178" r="15" fill="#2a2e37"/><circle cx="212" cy="178" r="6.5" fill="#9aa3ae"/><g transform="translate(72 160)"><circle cy="20" r="13" fill="#2a2e37"/><circle cy="20" r="5.5" fill="#9aa3ae"/><circle cx="46" cy="20" r="13" fill="#2a2e37"/><circle cx="46" cy="20" r="5.5" fill="#9aa3ae"/><path stroke="#4274d9" stroke-linecap="round" stroke-linejoin="round" stroke-width="5" d="M0 20 14 0h14l6 8h12"/><path stroke="#4274d9" stroke-linecap="round" stroke-width="5" d="M46 20V8"/></g><g transform="translate(252 108)"><circle r="15" fill="#e8b54d" stroke="#c08a2e" stroke-width="2.4"/><circle r="10" stroke="#f2d28a" stroke-width="1.4"/><text y="5" fill="#6b4e16" font-family="system-ui, sans-serif" font-size="12" font-weight="700" text-anchor="middle">₹</text></g><path fill="#95ccdd" d="m76 80 3 7 7 3-7 3-3 7-3-7-7-3 7-3z"/><circle cx="246" cy="70" r="3" fill="#95ccdd"/><circle cx="60" cy="128" r="2.5" fill="#95ccdd" opacity=".7"/></svg>