<svg xmlns="http://www.w3.org/2000/svg" width="400" height="300" fill="none" viewBox="0 0 400 300"><defs><linearGradient id="sky" x1="0" x2="0" y1="0" y2="1"><stop offset="0" stop-color="#cbe6ee"/><stop offset="1" stop-color="#f2f3ea"/></linearGradient></defs><path fill="url(#sky)" d="M0 0h400v300H0z"/><circle cx="76" cy="52" r="18" fill="#f3e4b8"/><g fill="#fff" opacity=".9"><ellipse cx="280" cy="40" rx="32" ry="10"/><ellipse cx="306" cy="34" rx="18" ry="7"/></g><path stroke="#293681" stroke-linecap="round" stroke-width="1.5" d="M180 56q5-6 10 0 5-6 10 0" opacity=".5"/><path fill="#6fa98c" d="M0 160q80-32 170-4t230-6v22H0Z" opacity=".3"/><path fill="#e9e5d9" d="M0 164h400v136H0z"/><path fill="#d8e4c8" d="M60 184h280l50 84H14Z"/><path stroke="#9db57f" stroke-linecap="round" stroke-width="3" d="m96 196-26 56m76-56-16 56m66-56-4 56m54-56 8 56m42-56 20 56"/><path stroke="#4e8e6e" stroke-linecap="round" stroke-width="2" d="M86 212q3-8 6 0m-10 16q3-8 6 0m52-16q3-8 6 0m-10 18q3-8 6 0m52-16q3-8 6 0m-7 18q3-8 6 0m51-20q3-8 6 0m-2 18q3-8 6 0m42-16q3-8 6 0m2 18q3-8 6 0"/><path fill="#8a5a34" d="M330 150h10v46h-10z"/><circle cx="336" cy="124" r="34" fill="#6fa98c"/><circle cx="314" cy="140" r="18" fill="#4e8e6e"/><circle cx="358" cy="140" r="16" fill="#4e8e6e"/><path stroke="#b4794a" stroke-linecap="round" stroke-width="3.5" d="M20 238v28m32-28v28M8 246h54M8 258h54"/><g fill="#4274d9"><rect width="18" height="14" x="88" y="252" rx="3"/><path d="m88 256-8-6 2 10Z"/></g></svg>