<svg xmlns="http://www.w3.org/2000/svg" width="480" height="360" viewBox="0 0 480 360" fill="none" role="img">
  <circle cx="240" cy="172" r="146" fill="#D0E7E6" opacity="0.35"/>
  <ellipse cx="240" cy="318" rx="188" ry="20" fill="#293681" opacity="0.06"/>
  <!-- cheque slip behind -->
  <g transform="rotate(-7 250 120)">
    <rect x="196" y="84" width="150" height="80" rx="8" fill="#FFFFFF" stroke="#293681" stroke-width="3"/>
    <rect x="210" y="98" width="60" height="9" rx="4.5" fill="#4274D9"/>
    <rect x="210" y="118" width="100" height="6" rx="3" fill="#DDE4F0"/>
    <rect x="210" y="132" width="80" height="6" rx="3" fill="#DDE4F0"/>
    <text x="330" y="156" font-family="system-ui, sans-serif" font-size="18" font-weight="700" fill="#C08A2E" text-anchor="end">&#8377;</text>
  </g>
  <!-- gold coins -->
  <g transform="translate(150,150)">
    <circle r="22" fill="#E8B54D" stroke="#C08A2E" stroke-width="3"/>
    <circle r="15" fill="none" stroke="#F2D28A" stroke-width="2"/>
    <text x="0" y="7" font-family="system-ui, sans-serif" font-size="18" font-weight="700" fill="#6B4E16" text-anchor="middle">&#8377;</text>
  </g>
  <g transform="translate(196,196)">
    <circle r="16" fill="#E8B54D" stroke="#C08A2E" stroke-width="2.5"/>
    <text x="0" y="6" font-family="system-ui, sans-serif" font-size="14" font-weight="700" fill="#6B4E16" text-anchor="middle">&#8377;</text>
  </g>
  <!-- wallet -->
  <rect x="132" y="176" width="196" height="108" rx="18" fill="#4274D9"/>
  <path d="M132 216 h196 v50 a18 18 0 0 1 -18 18 h-160 a18 18 0 0 1 -18 -18 Z" fill="#293681"/>
  <rect x="256" y="222" width="80" height="40" rx="10" fill="#E8F2F1"/>
  <circle cx="296" cy="242" r="11" fill="#E8B54D" stroke="#C08A2E" stroke-width="2.5"/>
  <!-- payout method pills -->
  <g transform="translate(300,286)">
    <rect x="-96" y="0" width="96" height="30" rx="15" fill="#4274D9"/>
    <text x="-48" y="20" font-family="system-ui, sans-serif" font-size="14" font-weight="700" fill="#FFFFFF" text-anchor="middle">Razorpay</text>
  </g>
  <g transform="translate(410,286)">
    <rect x="-96" y="0" width="80" height="30" rx="15" fill="#FFFFFF" stroke="#293681" stroke-width="2.5"/>
    <text x="-56" y="20" font-family="system-ui, sans-serif" font-size="14" font-weight="700" fill="#293681" text-anchor="middle">Cheque</text>
  </g>
</svg>
