<svg xmlns="http://www.w3.org/2000/svg" viewBox="0 0 500 500"><path id="freepik--background-simple--inject-6" d="M440.41 275.3c13.14-67.14-32.52-102.6-124.3-112.16C215 152.6 248.39 88.51 197.09 53.54S.82 56.57 74.48 218.25 414 410.15 440.41 275.3" style="fill:#f5f5f5"/><path id="freepik--Floor--inject-6" d="M472.62 442.88c0 .15-92.49.27-206.55.27s-206.56-.15-206.56-.27 92.46-.26 206.56-.26 206.55.12 206.55.26" style="fill:#293681"/><g id="freepik--Device--inject-6"><path d="M181.61 128.06s.87-44.81-36.2-67.57H262.9s33.59 27.22 33.87 67.57Z" style="fill:#ebebeb"/><path d="M253.94 76.83c0 .15-13.42.27-30 .27s-30-.12-30-.27 13.42-.26 30-.26 30 .12 30 .26" style="fill:#455a64"/><path d="M266.76 84.94c0 .14-17.78.26-39.71.26s-39.71-.12-39.71-.26 17.78-.27 39.71-.27 39.71.12 39.71.27m6.68 20.5c0 .14-17.78.26-39.71.26s-39.72-.12-39.72-.26 17.78-.26 39.72-.26 39.71.12 39.71.26m-41.5-11.17a10 10 0 0 1-1.62.11l-4.44.08c-3.75.05-8.92.08-14.64.08s-10.89 0-14.64-.08l-4.44-.08a10 10 0 0 1-1.62-.11 10 10 0 0 1 1.62-.1l4.44-.08c3.75 0 8.92-.08 14.64-.08s10.89 0 14.64.08l4.44.08a10 10 0 0 1 1.62.1m34.82 0a5 5 0 0 1-1.2.11l-3.28.08c-2.76.05-6.59.08-10.81.08s-8.05 0-10.81-.08l-3.28-.08a5 5 0 0 1-1.2-.11 6 6 0 0 1 1.2-.1l3.28-.08c2.76 0 6.59-.08 10.81-.08s8 0 10.81.08l3.28.08a5 5 0 0 1 1.2.1m-27.45 22.16a10 10 0 0 1-1.63.11l-4.43.08c-3.75 0-8.93.08-14.64.08s-10.9 0-14.65-.08l-4.43-.08a10 10 0 0 1-1.63-.11 10 10 0 0 1 1.63-.1l4.43-.08c3.75 0 8.93-.08 14.65-.08s10.89 0 14.64.08l4.43.08a10 10 0 0 1 1.63.1m34.82 0a5 5 0 0 1-1.2.11l-3.28.08c-2.77 0-6.59.08-10.81.08s-8 0-10.82-.08l-3.28-.08a5 5 0 0 1-1.2-.11 6 6 0 0 1 1.2-.1l3.28-.08c2.77 0 6.59-.08 10.82-.08s8 0 10.81.08l3.28.08a6 6 0 0 1 1.2.1m-116.54 10.36h173.34l9.44 300.3a15.34 15.34 0 0 1-14.86 15.82H144.78a9.9 9.9 0 0 1-9.91-9.43l-8.33-169.57S75.13 245.25 76 188.32c0 0 2.34-61.53 81.59-61.53" style="fill:#293681"/><path d="m167 442.46-7.56-315.67h177.78l3.21 302.39a13.3 13.3 0 0 1-12.85 13.69h-.46Z" style="fill:#455a64"/><path d="m174.13 145.08 3.6 146.98h144.79l-1.95-146.98z" style="fill:#293681"/><path d="M190.15 164.1c7.07 1.91 16 1.1 23.26.75a2 2 0 0 0 0-4c-7.26-.36-16.2-1.17-23.26.75a1.33 1.33 0 0 0-.9 1.65 1.4 1.4 0 0 0 .9.9Zm35.62-.29c6.94 1.77 15.91 1.45 23 .77a2 2 0 0 0 0-4c-7.09-.69-16.06-1-23 .77a1.3 1.3 0 0 0-.86 1.61 1.3 1.3 0 0 0 .86.86Zm35.14-.63c3.49 1.06 7.26.88 10.88.94a71 71 0 0 0 11.09-.21c1.81-.26 1.81-3.41 0-3.66a70 70 0 0 0-11.09-.22c-3.62.06-7.39-.12-10.88.94a1.15 1.15 0 0 0 0 2.21m32.56.2a59 59 0 0 0 7.95.61c2.64.06 5.49.49 8.05-.24a1.75 1.75 0 0 0 0-3.35c-2.56-.73-5.41-.3-8.05-.24a57 57 0 0 0-7.95.62 1.36 1.36 0 0 0 0 2.6" style="fill:#e0e0e0"/><path d="M177.78 309.54h41.96v29.99h-41.96z" style="fill:#4274D9"/><path d="M177.78 309.54h7.59v29.99h-7.59z" style="fill:#293681"/><path d="M229.16 309.54h41.96v29.99h-41.96z" style="fill:#4274D9"/><path d="M228.73 309.54h7.59v29.99h-7.59z" style="fill:#293681"/><path d="M280.55 309.54h41.96v29.99h-41.96z" style="fill:#4274D9"/><path d="M279.35 309.54h7.59v29.99h-7.59z" style="fill:#293681"/><path d="M280.55 349.44h41.96v29.99h-41.96z" style="fill:#4274D9"/><path d="M280.55 349.44h7.82v29.99h-7.82z" style="fill:#293681"/><path d="M177.78 349.44h41.96v29.99h-41.96z" style="fill:#4274D9"/><path d="M177.78 349.38h7.59v29.99h-7.59z" style="fill:#293681"/><path d="M177.78 388.94h41.96v29.99h-41.96z" style="fill:#4274D9"/><path d="M177.78 388.94h41.96v29.99h-41.96z" style="isolation:isolate;opacity:.30000001192092896"/><path d="M177.78 388.94h7.59v29.99h-7.59z" style="fill:#293681"/><path d="M228.93 349.44h41.96v29.99h-41.96z" style="fill:#4274D9"/><path d="M228.93 349.38h7.59v29.99h-7.59z" style="fill:#293681"/><path d="M229.16 388.94h41.96v29.99h-41.96z" style="fill:#4274D9"/><path d="M229.16 388.94h41.96v29.99h-41.96z" style="isolation:isolate;opacity:.30000001192092896"/><path d="M229.16 388.94h7.59v29.99h-7.59z" style="fill:#293681"/><path d="M280.55 388.94h41.96v29.99h-41.96z" style="fill:#e0e0e0"/><path d="M280.55 388.94h7.59v29.99h-7.59z" style="fill:#293681"/><path d="M153.15 442.92c-.72 0-3.35-70.74-5.88-158s-4-158.09-3.28-158.11 3.35 70.72 5.88 158 4 158.09 3.28 158.11m169.15-167.6v5.39l16.6 4.13-.09-8.31z" style="fill:#455a64"/><path d="M120.79 264.51a7 7 0 0 0-2.86-.47 10 10 0 0 0-2.86.7l-11.36 3.8-22.2 7.46-42 14a7 7 0 0 0-4 3 6.7 6.7 0 0 0-.95 4.81 18 18 0 0 0 .72 2.43l.81 2.42 1.61 4.79q3.16 9.49 6.16 18.43c4 11.9 7.68 23 11.07 33.09 6.74 20.23 12.21 36.61 16 47.93 1.88 5.66 3.33 10.05 4.33 13l1.11 3.39.36 1.16a6 6 0 0 0 .51 1.1 7 7 0 0 0 2.42 2.55 7 7 0 0 0 5.54.8c2.18-.7 4.68-1.58 7.51-2.52l41.76-14.08-44.54-139.1 22.28-7.47L152.44 389l-1.76-42.88-26-77.45a6.8 6.8 0 0 0-3.89-4.16m-51.34 63.37-9.94-31.46 3.37-1.07 9.94 31.46Zm6.9-17.33-5.8-18.34 3.37-1.06 5.8 18.33Zm7.78 23.26-5.79-18.34 3.37-1.06 5.79 18.33Zm2 4.92 3.37-1.07 16 50.78-3.37 1.06Zm21 66.44-3.43-10.85 3.37-1.07 3.43 10.86Zm13.87-5.76-3.37 1.06-21.17-67 3.37-1.06ZM98.1 326l-3.37 1.06-12.28-38.83 3.37-1.07Z" style="fill:#4274D9"/><path d="M120.79 264.51a7 7 0 0 0-2.86-.47 10 10 0 0 0-2.86.7l-11.36 3.8-22.2 7.46-42 14a7 7 0 0 0-4 3 6.7 6.7 0 0 0-.95 4.81 18 18 0 0 0 .72 2.43l.81 2.42 1.61 4.79q3.16 9.49 6.16 18.43c4 11.9 7.68 23 11.07 33.09 6.74 20.23 12.21 36.61 16 47.93 1.88 5.66 3.33 10.05 4.33 13l1.11 3.39.36 1.16a6 6 0 0 0 .51 1.1 7 7 0 0 0 2.42 2.55 7 7 0 0 0 5.54.8c2.18-.7 4.68-1.58 7.51-2.52l41.76-14.08-44.54-139.1 22.28-7.47L152.44 389l-1.76-42.88-26-77.45a6.8 6.8 0 0 0-3.89-4.16m-51.34 63.37-9.94-31.46 3.37-1.07 9.94 31.46Zm6.9-17.33-5.8-18.34 3.37-1.06 5.8 18.33Zm7.78 23.26-5.79-18.34 3.37-1.06 5.79 18.33Zm2 4.92 3.37-1.07 16 50.78-3.37 1.06Zm21 66.44-3.43-10.85 3.37-1.07 3.43 10.86Zm13.87-5.76-3.37 1.06-21.17-67 3.37-1.06ZM98.1 326l-3.37 1.06-12.28-38.83 3.37-1.07Z" style="isolation:isolate;opacity:.30000001192092896"/><path d="m134.5 412.49-.05-.16-41.76 14.08c-2.83.94-5.33 1.82-7.51 2.52a7 7 0 0 1-5.54-.8 7 7 0 0 1-2.42-2.55c-.39-.7-.48-1.11-.51-1.1l.1.29a7 7 0 0 0 2.78 3.44 7 7 0 0 0 5.62.86c2.2-.69 4.7-1.55 7.54-2.49l47.93-16 11.37-3.8 1.1-.56Zm-58.15 10.82-1.11-3.39-4.33-13-16-47.93-11.07-33.09q-3-8.92-6.16-18.43l-1.61-4.79-.81-2.42a18 18 0 0 1-.72-2.43 6.7 6.7 0 0 1 1-4.81 7 7 0 0 1 4-3l42-14 22.2-7.44 11.36-3.8a10 10 0 0 1 2.86-.7 6.76 6.76 0 0 1 6.77 4.61c9.13 27.23 17.88 53.32 26 77.45l-.07-1.62c-7.94-23.72-16.52-49.3-25.45-76a7.3 7.3 0 0 0-4.19-4.44 7 7 0 0 0-3.07-.5 11 11 0 0 0-3 .72l-11.35 3.81-22.2 7.44-42 14.08a7.4 7.4 0 0 0-4.26 3.13 7.2 7.2 0 0 0-1 5.13 19 19 0 0 0 .74 2.49l.82 2.42 1.6 4.78 6.19 18.43 11.11 33.05 16.13 47.88 4.41 13 1.16 3.38.41 1.15s-.11-.39-.36-1.16" style="fill:#293681"/><path d="M106.93 331.32h3.53v70.26h-3.53z" style="fill:#fafafa" transform="rotate(-17.54 108.713 366.44)"/><path d="M88.51 286.74h3.53v40.75h-3.53z" style="fill:#fafafa" transform="rotate(-17.54 90.29 307.122)"/><path d="M73.37 291.23h3.53v19.23h-3.53z" style="fill:#fafafa" transform="rotate(-17.54 75.134 300.835)"/><path d="M63.75 294.18h3.52v32.88h-3.52z" style="fill:#fafafa" transform="rotate(-17.53 65.495 310.558)"/><path d="M105.38 393.51h3.53v11.38h-3.53z" style="fill:#fafafa" transform="rotate(-17.54 107.141 399.213)"/><path d="M81.15 314.49h3.53v19.23h-3.53z" style="fill:#fafafa" transform="rotate(-17.54 82.926 324.103)"/><path d="M94.04 336.98h3.53v53.25h-3.53z" style="fill:#fafafa" transform="rotate(-17.54 95.81 363.62)"/><path d="m89.93 273.2 44.52 139.13.05.16 18.65-6.25-.71-17.26-40.23-123.25z" style="fill:#fafafa"/><path d="m134.25 420.8 18.08-6.36-.39-7.93-17.44 5.98z" style="fill:#293681"/></g><g id="freepik--Icon--inject-6"><path d="M362.21 190.61c0 .14-.56.23-1.26.2s-1.24-.17-1.23-.32.57-.23 1.26-.2 1.24.17 1.23.32m9.79-.42a6 6 0 0 1-2.43.45 6 6 0 0 1-2.47-.07 12 12 0 0 1 4.9-.38m9.7-1.73a6 6 0 0 1-2.35.77 6 6 0 0 1-2.46.26 12 12 0 0 1 4.81-1Zm9.35-2.99a6 6 0 0 1-2.22 1.07 6 6 0 0 1-2.4.58 6 6 0 0 1 2.22-1.07 6 6 0 0 1 2.4-.58m8.87-4.23a12 12 0 0 1-4.36 2.27 6 6 0 0 1 2.06-1.37 6 6 0 0 1 2.3-.9m8.17-5.45c.09.11-.73.85-1.84 1.65a6 6 0 0 1-2.14 1.23c-.08-.12.74-.86 1.84-1.66s2.05-1.34 2.14-1.22m7.22-6.66c.11.1-.59 1-1.55 1.92s-1.83 1.66-1.92 1.55.59-1 1.55-1.92 1.81-1.68 1.92-1.55m5.97-7.79c.13.07-.41 1-1.19 2.16s-1.51 2-1.62 1.87a6 6 0 0 1 1.19-2.17c.78-1.1 1.5-1.94 1.62-1.86m4.4-8.78a12 12 0 0 1-2 4.5 11 11 0 0 1 2-4.5m2.6-9.46a6 6 0 0 1-.29 2.45 6 6 0 0 1-.8 2.34 12 12 0 0 1 1.09-4.79m1-9.77a11 11 0 0 1-.31 4.9 6 6 0 0 1-.1-2.46 6 6 0 0 1 .41-2.44m-.49-9.8a11 11 0 0 1 .43 4.89 6 6 0 0 1-.47-2.42 6 6 0 0 1 .04-2.47m-1.99-9.62a6 6 0 0 1 .85 2.32 6 6 0 0 1 .34 2.45 6 6 0 0 1-.85-2.32 6 6 0 0 1-.34-2.45m-3.56-9.15a6 6 0 0 1 1.23 2.14 6 6 0 0 1 .75 2.36 6 6 0 0 1-1.23-2.15 6 6 0 0 1-.75-2.35M418 96.45c.11-.09.83.74 1.62 1.86a6 6 0 0 1 1.19 2.16c-.12.08-.85-.76-1.62-1.86a6 6 0 0 1-1.19-2.16m-6.81-7.04c.09-.11 1 .49 2 1.42s1.68 1.81 1.58 1.91-.94-.61-1.93-1.53-1.74-1.69-1.65-1.8m-6.11-4.22c.07-.12.61.07 1.2.43s1 .75.93.87-.62-.07-1.2-.42-1.01-.75-.93-.88" style="fill:#293681"/><circle cx="377.96" cy="75.25" r="34.64" style="fill:#4274D9"/><path d="m357.47 77.78 5.36-5.36 10.34 9.19 20.3-19.53 4.98 5.36-26.04 24.51z" style="fill:#fafafa"/></g><g id="freepik--Character--inject-6"><path d="m398.17 226.28-5.1-18.69s-24 6.25-25.53 4.31c-8.71-10.77-13.11-25.57-14.48-30.88q.28-1.13.8-2.69a8 8 0 0 1 1.34-2.46 13 13 0 0 1 2.42-2.5 1.1 1.1 0 0 0 .41-1.47 1 1 0 0 0-.73-.53c-1-.07-3.52 1.45-5.41 4.34s-2.46-2.51-2.7-4.47-1.29-8-1.95-8.43c-1-.59-1.79.34-1.5 2.3s.74 7.9-.3 8-2.14-10-2.14-10 .11-2.18-1.1-2.13c-2.19.09-.22 10.67 0 11.68.15.69-1 .82-1.1.06s-.88-10-3.1-10c-1.71.06 1.53 8.72.62 10.73s-1.79-6.82-3.42-6.7c-.6 0-1.05.16.19 5.16a103 103 0 0 0 3.7 10.5H339s8.9 52.22 32 49.3c24.59-3.04 27.17-5.43 27.17-5.43" style="fill:#ffbe9d"/><path d="m363.32 278.09-146.57-10.67a7.54 7.54 0 0 1-7-8l6.56-90.05a7.54 7.54 0 0 1 8-7L371 173a7.55 7.55 0 0 1 7 8.06l-6.56 90.05a7.54 7.54 0 0 1-8.05 7Z" style="fill:#4274D9"/><path d="M363.32 278.09h1.34a7.4 7.4 0 0 0 3.62-1.42 7.5 7.5 0 0 0 3-5.39l.62-8.76 4-55.77 1.33-18.49.35-4.86a13 13 0 0 0-.12-4.87 7.2 7.2 0 0 0-2.8-3.93 8 8 0 0 0-2.24-1.08 13 13 0 0 0-2.52-.33L325.69 170l-101.29-7.41a7.3 7.3 0 0 0-5.85 2.29 7 7 0 0 0-1.62 2.77 13 13 0 0 0-.44 3.24l-1 13.22q-1 13.13-1.88 25.84l-3.58 48.85a7.5 7.5 0 0 0 1.32 5.36 7.3 7.3 0 0 0 4.58 2.92c3.73.37 7.51.57 11.19.87l21.45 1.57 38.52 2.84 55.76 4.14 15.15 1.16 4 .34 1.34.12s-.45 0-1.34-.07l-4-.26-15.16-1.05-55.78-4-38.49-2.74-21.46-1.55c-3.69-.29-7.4-.48-11.24-.86a7.7 7.7 0 0 1-4.88-3.1 8 8 0 0 1-1.41-5.67l3.55-48.86 1.87-25.84q.48-6.57 1-13.22a14 14 0 0 1 .46-3.36 7.8 7.8 0 0 1 8-5.42l101.29 7.4 44.2 3.24a13 13 0 0 1 2.6.35 7.9 7.9 0 0 1 5.37 5.3 8 8 0 0 1 .29 2.54c0 .84-.11 1.65-.17 2.48l-.36 4.86-1.36 18.48-4.15 55.77-.66 8.75a7.6 7.6 0 0 1-3.12 5.46 7.3 7.3 0 0 1-3.67 1.39 6 6 0 0 1-1 0Z" style="fill:#293681"/><path d="m226.33 230-.65 9-.92-.07.59-8.15-2.11-.15.06-.82Zm8.67 8.85-.07.82-6.29-.46v-.65l4-3.38c1.08-.93 1.32-1.51 1.36-2.13.08-1-.61-1.73-2-1.83a3 3 0 0 0-2.52.82l-.61-.61a4 4 0 0 1 3.27-1.05c1.82.13 2.91 1.14 2.8 2.64a3.8 3.8 0 0 1-1.68 2.7l-3.26 2.77Zm9.52-.85-1.79-.13-.18 2.36-.92-.07.17-2.36-5.06-.36v-.67l5.19-5.6 1 .07-5 5.46 3.9.29.15-2.08.9.06-.15 2.08 1.79.13Zm13.75 1-1.79-.13-.18 2.36-.92-.07.17-2.35-5.06-.37v-.67l5.19-5.6 1 .08-5 5.45 3.9.29.15-2.08.9.07-.16 2.07 1.8.13Zm7.86.29c-.11 1.53-1.26 2.64-3.45 2.48a4.6 4.6 0 0 1-3.13-1.39l.5-.69a4 4 0 0 0 2.68 1.24c1.52.11 2.38-.58 2.46-1.67s-.58-1.92-2.86-2.09l-1.91-.14.79-4.46 4.91.36-.06.82-4.1-.3-.52 2.83 1.16.09c2.7.19 3.65 1.33 3.53 2.92m8.87.61a2.8 2.8 0 0 1-3 2.56h-.24c-2.39-.17-3.56-1.92-3.35-4.75.22-3.05 2-4.52 4.44-4.34a4 4 0 0 1 2.09.64l-.43.72a3 3 0 0 0-1.71-.55c-1.94-.14-3.27 1-3.45 3.44v.74a2.9 2.9 0 0 1 2.85-1.34 2.7 2.7 0 0 1 2.8 2.58zm-.91 0c.09-1.18-.73-2-2.11-2.1a2.1 2.1 0 0 0-2.43 1.66s0 .09 0 .13c-.08 1 .68 2 2.23 2.1a2 2 0 0 0 2.31-1.64v-.19Zm13.18 1c-.11 1.5-1.28 2.57-3.45 2.41a4.6 4.6 0 0 1-3.14-1.39l.5-.69a4 4 0 0 0 2.7 1.24c1.49.1 2.36-.53 2.44-1.64s-.63-1.84-2.29-2l-.64-.05.05-.68 2.71-2.93-4.59-.33.06-.82 5.77.42-.05.65-2.77 3c1.92.29 2.8 1.37 2.7 2.81m9 .55a2.8 2.8 0 0 1-3 2.58H293c-2.38-.17-3.56-1.92-3.35-4.75.22-3 2-4.52 4.44-4.34a4 4 0 0 1 2.09.64l-.43.72a3 3 0 0 0-1.71-.55c-1.94-.14-3.27 1-3.45 3.44v.74a2.9 2.9 0 0 1 2.85-1.34 2.7 2.7 0 0 1 2.83 2.6zm-.91 0c.09-1.18-.73-2-2.11-2.1a2.1 2.1 0 0 0-2.43 1.66s0 .09 0 .13c-.08 1 .68 2 2.23 2.1a2 2 0 0 0 2.31-1.64v-.19Zm9.64-5.69-.05.65-4.36 8-1-.07 4.29-7.88-4.61-.34-.13 1.68-.91-.06.19-2.5Zm12.81.93-.05.66-4.36 8-1-.07 4.28-7.88-4.61-.34-.12 1.68-.91-.07.18-2.5Zm8.35 7.12c-.11 1.59-1.53 2.47-3.67 2.32s-3.39-1.24-3.27-2.83a2.26 2.26 0 0 1 1.89-2.08 2 2 0 0 1-1.27-2.07c.11-1.46 1.42-2.28 3.32-2.15s3.1 1.15 3 2.61a2 2 0 0 1-1.58 1.86 2.3 2.3 0 0 1 1.58 2.34m-.94-.08c.08-1.11-.82-1.87-2.41-2s-2.57.5-2.65 1.61.8 1.87 2.39 2 2.59-.5 2.67-1.61m-2.36-2.73c1.4.1 2.28-.47 2.35-1.44s-.77-1.7-2.11-1.79-2.26.45-2.33 1.45.7 1.69 2.09 1.78m12.14 1.38c-.22 3.05-2 4.52-4.44 4.34a4.3 4.3 0 0 1-2.09-.64l.42-.72a3 3 0 0 0 1.72.55c1.93.14 3.26-1 3.44-3.45v-.73a2.9 2.9 0 0 1-2.86 1.34 2.7 2.7 0 0 1-2.83-2.6v-.31a2.8 2.8 0 0 1 3-2.56h.23c2.47.2 3.64 1.95 3.41 4.78m-1.14-1.88c.07-1-.68-2-2.23-2.09a2 2 0 0 0-2.31 1.63v.16c-.09 1.18.73 2 2.11 2.1a2.1 2.1 0 0 0 2.45-1.62v-.18Z" style="fill:#fafafa"/><path d="M325.47 219.04h3.91v72.05h-3.91z" style="fill:#fafafa" transform="rotate(-85.84 327.423 255.063)"/><path d="M342.42 245.65h3.91v36.95h-3.91z" style="fill:#fafafa" transform="rotate(-85.84 344.371 264.126)"/><rect width="22.58" height="30.23" x="225.99" y="196.66" rx="4.96" style="fill:#455a64" transform="rotate(-85.83 237.28 211.777)"/><path d="m221.85 215.69.11-1.44 15.52 1.13a3.26 3.26 0 1 0 .67-6.49H238l-15.52-1.13.1-1.45 15.53 1.13a4.71 4.71 0 0 1-.68 9.39Z" style="fill:#4274D9"/><path d="M246.29 207.46h1.45v10.68h-1.45z" style="fill:#4274D9" transform="rotate(-85.78 247.01 212.8)"/><path d="M263.14 148.4h6.67v77.75h-6.67z" style="fill:#fafafa" transform="rotate(-85.83 266.467 187.276)"/><path d="M407.48 163.6c-2.07 3.45-1.86 7.78-1.28 11.77s1.48 8.06.59 12c-.59 2.59-2 5.18-1.32 7.75.45 1.83 1.82 3.27 2.5 5 1 2.5.43 5.28.1 7.94s-.31 5.63 1.45 7.64c2.19 2.5 6.22 2.39 9.22 1s5.38-3.86 8.16-5.67 6.4-3 9.39-1.56c1.38.66 2.57 1.84 4.09 2 2.13.16 3.81-1.79 5.87-2.36 1.77-.48 3.66.11 5.48-.1 3.71-.41 6.45-4.41 5.93-8.1a9.1 9.1 0 0 0-7.52-7.29c-1.57-.26-3.46-.3-4.32-1.64-1.28-2 1-4.51.57-6.82-.28-1.66-1.86-2.77-3.41-3.45s-3.26-1.13-4.46-2.31c-2.15-2.1-1.91-5.54-2.57-8.48-1.09-4.84-5.62-14.75-15.48-15.72" style="fill:#293681"/><path d="m402.91 439 .19-7.06 13.23.27-.17 10.33h-.82c-3.65.13-18.59.4-21-.39-2.72-.85 8.57-3.15 8.57-3.15" style="fill:#4274D9"/><path d="M411.37 442.33a4.6 4.6 0 0 1 1.74-2.78 4.5 4.5 0 0 1 3.11-.9l-.07 3.69Z" style="fill:#4274D9"/><path d="M397.39 440.31s-4 1.06-3.48 1.72 15.58 1 22.25.5v-.29l-17.61-.2s-.39-1.68-1.16-1.73" style="fill:#4274D9"/><path d="M416.35 442.23h-.88l-2.4.06h-7.94c-3.1 0-5.91-.17-7.94-.28l-2.4-.15-.65-.05h.65l2.41.09c2 .08 4.83.18 7.93.24s5.9.07 7.93.06h3.29Z" style="fill:#293681"/><path d="M398.53 442.25a5 5 0 0 0-.43-1.16 6 6 0 0 0-.8-.94 2.15 2.15 0 0 1 1.23 2.1m3.94-1.91a3 3 0 0 1-.41-.51c-.19-.3-.31-.58-.27-.6s.22.21.41.51.31.58.27.6m1.08-.54a2 2 0 0 1-.46-.32c-.23-.21-.38-.41-.35-.44s.24.11.46.32.38.41.35.44m.7-1.24c0 .05-.31.08-.69.08s-.69 0-.69-.09a1.5 1.5 0 0 1 .69-.07 2 2 0 0 1 .69.08m.25-.87a1.3 1.3 0 0 1-.77.21 1.3 1.3 0 0 1-.79-.13 5 5 0 0 1 .78 0 3 3 0 0 1 .78-.08" style="fill:#293681"/><path d="M402 439.18a2 2 0 0 1-.85 0 5 5 0 0 1-.9-.22 3 3 0 0 1-.51-.22.5.5 0 0 1-.21-.27.4.4 0 0 1 .14-.34 1.6 1.6 0 0 1 1.92.5 1.4 1.4 0 0 1 .26.57v.23a2 2 0 0 0-.37-.73 1.6 1.6 0 0 0-.72-.49 1.3 1.3 0 0 0-1 .05c-.14.1-.09.26.06.35l.47.21a5 5 0 0 0 .87.25 8 8 0 0 1 .84.11" style="fill:#293681"/><path d="M401.82 439.22a.8.8 0 0 1-.08-.59 1.3 1.3 0 0 1 .26-.63.8.8 0 0 1 .72-.42.36.36 0 0 1 .25.4 1 1 0 0 1-.15.37 3 3 0 0 1-.41.51 1.3 1.3 0 0 1-.5.34 4 4 0 0 0 .42-.42 3 3 0 0 0 .36-.5c.12-.18.21-.5 0-.54s-.44.18-.57.35a1 1 0 0 0-.25.55 4 4 0 0 0-.05.58m14.33-.61a5 5 0 0 0-1 0 4.1 4.1 0 0 0-3.52 2.7c-.21.56-.24.94-.27.94v-.27a4 4 0 0 1 3.78-3.48 4 4 0 0 1 .72 0zm-1.26-5.53a21 21 0 0 1 .06 2.72 22 22 0 0 1-.1 2.71 46 46 0 0 1 0-5.43Zm-5.16 7.92a7 7 0 0 1-1.94.15 8 8 0 0 1-1.93-.19s.87 0 1.94 0 1.92.04 1.93.04" style="fill:#293681"/><path d="m412.32 441.06-.17.37c-.1.19-.14.38-.19.37s-.06-.21.05-.43.28-.37.31-.31m1-1.2a1 1 0 0 1-.2.3c-.14.13-.27.22-.3.19s.05-.17.19-.3.28-.22.31-.19m1.41-.53c0 .05-.19 0-.38.11s-.34.16-.37.13.08-.21.32-.29.44.01.43.05m1-.24a.4.4 0 0 1-.17.15.4.4 0 0 1-.23 0 .3.3 0 0 1 .17-.15q.18-.06.23 0" style="fill:#293681"/><path d="m440.44 439 .19-7.06 13.22.27-.17 10.33h-.82c-3.65.13-18.58.4-21-.39-2.71-.85 8.58-3.15 8.58-3.15" style="fill:#4274D9"/><path d="M448.89 442.33a4.6 4.6 0 0 1 1.75-2.78 4.4 4.4 0 0 1 3.11-.9l-.08 3.69Z" style="fill:#4274D9"/><path d="M434.92 440.31s-4 1.06-3.49 1.72 15.58 1 22.25.5v-.29l-17.62-.2s-.37-1.68-1.14-1.73" style="fill:#4274D9"/><path d="M453.88 442.23H453l-2.41.06h-7.94c-3.1 0-5.91-.17-7.93-.28l-2.41-.15-.65-.05h.66l2.4.09c2 .08 4.83.18 7.93.24s5.91.07 7.94.06h3.29Z" style="fill:#293681"/><path d="M436.05 442.25a5 5 0 0 0-.42-1.16 6 6 0 0 0-.8-.94 2.1 2.1 0 0 1 1.22 2.1m3.95-1.91a3 3 0 0 1-.4-.51c-.18-.3-.31-.58-.27-.6s.22.21.4.51a3 3 0 0 1 .27.6m1.08-.54a2 2 0 0 1-.46-.32c-.22-.21-.38-.41-.35-.44s.23.11.46.32.38.41.35.44m.7-1.24c0 .05-.31.08-.69.08s-.69 0-.69-.09a1.5 1.5 0 0 1 .69-.07 2 2 0 0 1 .69.08m.22-.87a1.4 1.4 0 0 1-.78.21 1.3 1.3 0 0 1-.79-.13 5 5 0 0 1 .78 0 3 3 0 0 1 .79-.08" style="fill:#293681"/><path d="M439.57 439.18a2 2 0 0 1-.85 0 5 5 0 0 1-.9-.22 2 2 0 0 1-.52-.22.5.5 0 0 1-.2-.27.4.4 0 0 1 .13-.34 1.6 1.6 0 0 1 1.92.5 2 2 0 0 1 .27.57v.23a2 2 0 0 0-.38-.73 1.5 1.5 0 0 0-.71-.49 1.3 1.3 0 0 0-1 .05c-.13.1-.08.26.06.35a2 2 0 0 0 .48.21 5 5 0 0 0 .87.25c.5.08.83.08.83.11" style="fill:#293681"/><path d="M439.35 439.22a.8.8 0 0 1-.09-.59 1.4 1.4 0 0 1 .25-.62.9.9 0 0 1 .71-.42.35.35 0 0 1 .26.4 1 1 0 0 1-.16.37 2 2 0 0 1-.41.51 1 1 0 0 1-.49.34l.41-.42a3 3 0 0 0 .37-.5c.12-.18.2-.5 0-.54s-.43.18-.57.35a2 2 0 0 0-.25.55 3 3 0 0 0-.03.57m14.33-.61a5 5 0 0 0-1 0 4.2 4.2 0 0 0-3.52 2.7c-.21.56-.24.94-.27.94v-.27a4 4 0 0 1 .16-.71 4 4 0 0 1 3.61-2.77 5 5 0 0 1 .73 0 1 1 0 0 1 .29.11m-1.26-5.53a46 46 0 0 1 0 5.43 20 20 0 0 1-.06-2.71 22 22 0 0 1 .06-2.72m-5.17 7.92a7 7 0 0 1-1.93.15 7 7 0 0 1-1.93-.19s.87 0 1.93 0 1.93.04 1.93.04" style="fill:#293681"/><path d="m449.84 441.06-.16.37c-.09.19-.15.38-.19.37s-.06-.21 0-.43.33-.37.35-.31m1.01-1.2a1 1 0 0 1-.2.3c-.14.13-.28.22-.31.19s.06-.17.2-.3.27-.22.31-.19m1.4-.53c0 .05-.18 0-.38.11s-.33.16-.37.13.08-.21.32-.29.45.01.43.05m1-.24a.4.4 0 0 1-.17.15.4.4 0 0 1-.23 0s.07-.11.18-.15.21-.04.22 0m-53.01-181.54-6.34 94.51v85.23h25.34s1.07-73.5.4-78.31c0 0 4.14-73.62 4.61-72.57 1 2.15.94 64.73 2.36 72.48s8 78.4 8 78.4H459l-8.2-81c-.17-9.76-2.68-95.47-2.68-95.47Z" style="fill:#293681"/><path d="M458.45 432.45a2 2 0 0 1-.94.33 5.5 5.5 0 0 1-2.68-.44 17 17 0 0 0-3.67-1.32c-1.43-.21-2.92.54-4.34 1.49a10.5 10.5 0 0 1-4.47 2.06 9 9 0 0 1-4-.49 23 23 0 0 1-2.5-1 3 3 0 0 1-.85-.49c0-.09 1.31.52 3.45 1.16a10 10 0 0 0 3.84.36 10 10 0 0 0 4.25-2 13 13 0 0 1 2.26-1.22 5 5 0 0 1 2.42-.3A16 16 0 0 1 455 432a6 6 0 0 0 2.52.57c.59-.02.91-.17.93-.12m-39-.59a7 7 0 0 0-.8-.65 3.8 3.8 0 0 0-2.67-.4 11 11 0 0 0-3.72 1.87 13 13 0 0 1-2.26 1.22 5 5 0 0 1-2.79.33c-1.92-.33-3.44-1.33-5-1.67a8 8 0 0 0-4.1.18c-2.3.69-3.65 1.4-3.69 1.3a4 4 0 0 1 .92-.54 18 18 0 0 1 2.67-1.12 8 8 0 0 1 4.31-.29c1.63.35 3.17 1.34 4.93 1.63s3.37-.62 4.7-1.45a11 11 0 0 1 3.91-1.82 4 4 0 0 1 2.86.59 1.7 1.7 0 0 1 .73.82m26.96-154.71a3 3 0 0 1-1.48.5 9 9 0 0 1-7.11-2c-.74-.63-1.07-1.14-1-1.18a11.4 11.4 0 0 0 9.61 2.65Zm-42.07-3.69c.06 0 .06.51-.2 1.25a6 6 0 0 1-1.71 2.52 6.5 6.5 0 0 1-2.7 1.42c-.77.17-1.26.11-1.26.05a8.1 8.1 0 0 0 5.87-5.24" style="fill:#455a64"/><path d="m344.45 238.63-.66 9-.92-.06.59-8.15-2.11-.16.06-.82Zm8.63 8.82-.06.82-6.29-.45v-.66l4-3.38c1.08-.92 1.32-1.51 1.37-2.13.07-1-.61-1.73-2-1.83a3 3 0 0 0-2.52.82L347 240a4 4 0 0 1 3.27-1.05c1.82.13 2.91 1.14 2.8 2.64-.06.86-.39 1.61-1.68 2.7l-3.26 2.78Zm8.17-1.16c-.11 1.49-1.28 2.57-3.44 2.41a4.6 4.6 0 0 1-3.15-1.39l.5-.7a4 4 0 0 0 2.71 1.24c1.48.11 2.35-.52 2.44-1.63s-.63-1.84-2.3-2h-.64l.05-.68 2.72-2.93-4.59-.33.06-.82 5.76.42v.65l-2.77 3c1.87.24 2.76 1.32 2.65 2.76" style="fill:#fafafa"/><path d="M408.5 158.32a9 9 0 0 0-2.53 6.94 16 16 0 0 0 2.41 7.15" style="fill:#293681"/><path d="m430.33 197.41 1.36-31.33-12.57-9.52-11.42 5.58s-.38 14.34 0 20.56 6.65 6.88 6.65 6.88l-.38 7a8.2 8.2 0 0 0 7.61 8.61 8.2 8.2 0 0 0 8.74-7.6z" style="fill:#ffbe9d"/><path d="M409.74 172.6a.8.8 0 1 0 .8-.8.8.8 0 0 0-.8.8m-1.56-.87c.1.1.69-.4 1.54-.45s1.5.37 1.59.26-.06-.24-.34-.44a2 2 0 0 0-1.28-.33 2 2 0 0 0-1.22.49c-.26.22-.34.42-.29.47m10.82.87a.8.8 0 0 0 .79.79.8.8 0 1 0-.79-.81Zm-1.32-.87c.1.1.69-.4 1.54-.45s1.5.37 1.59.26-.06-.24-.34-.44a2.1 2.1 0 0 0-2.51.16c-.25.22-.33.42-.28.47" style="fill:#293681"/><path d="M417.41 179.78a16 16 0 0 1-4.14 1.42 2.4 2.4 0 0 0 2.84.81 1.75 1.75 0 0 0 1.33-2.1Z" style="fill:#fafafa"/><path d="M414.35 189.58a15.5 15.5 0 0 0 8.24-2.78s-1.87 4.57-8.1 4.31Z" style="fill:#eb996e"/><path d="M414.58 179a6 6 0 0 0-1.4-.17c-.22 0-.43 0-.48-.2a1.2 1.2 0 0 1 .13-.7l.58-1.77c.41-1.27.76-2.41 1-3.25a5 5 0 0 0 .31-1.38 6 6 0 0 0-.54 1.3c-.3.82-.69 2-1.1 3.22l-.56 1.79a1.4 1.4 0 0 0-.08.89.5.5 0 0 0 .36.31 1 1 0 0 0 .37 0 5 5 0 0 0 1.41-.04" style="fill:#293681"/><path d="M430.77 177.22a8 8 0 0 1 .34-3.07 2.9 2.9 0 0 1 2.23-1.93 2.44 2.44 0 0 1 2.53 2 3 3 0 0 1-1.54 3 4 4 0 0 1-3.46.09" style="fill:#ffbe9d"/><path d="M432.59 176.31c0-.07.33.09.77-.05a1.4 1.4 0 0 0 .93-1.32 1 1 0 0 0-.22-.83 1 1 0 0 0-.68-.2c-.46 0-.79.16-.82.09s.21-.29.77-.45a1.2 1.2 0 0 1 1 .2 1.4 1.4 0 0 1 .43 1.23 2 2 0 0 1-.46 1.16 1.5 1.5 0 0 1-.92.48c-.57.06-.86-.27-.8-.31" style="fill:#eb996e"/><path d="M407.79 158.93c-2.76 3.43.92 5.59 2.75 7 1.41 1.1 5.57 4 9.22 2.63-1.29-1.73-2.76-2.49-3.33-4.14 1.49 2.1 3.06 3.69 5.62 4-.51-1.49-1.23-4.52-.68-4.64.68 5.92 6.23 10.9 10.05 9a12.7 12.7 0 0 0-1.18-11.42 14.4 14.4 0 0 0-9.77-6.23 15.5 15.5 0 0 0-12.68 3.8" style="fill:#293681"/><path d="M434 177.79c0-.06.47.39.28 1.24a1.7 1.7 0 0 1-.92 1.13 2 2 0 0 1-1.8-.07 2.1 2.1 0 0 1-1-1.51 2 2 0 0 1 .36-1.41c.5-.68 1.06-.75 1.06-.7a4 4 0 0 0-.75.9 1.7 1.7 0 0 0-.19 1.14 1.7 1.7 0 0 0 .75 1.13 1.6 1.6 0 0 0 1.34.09 1.4 1.4 0 0 0 .77-.81 3 3 0 0 0 .1-1.13m-43.23 51.52 9.38-1.95 2.85 15.78a253 253 0 0 0-6 24.58l22 13.73 3.39-6.44 5.43 5.16 23.41-12.45c-2.89-15-10.19-18.92-10.19-21.36 0-7-1-.2 4.87-23.39s-15.55-25.56-15.55-25.56.48 3.24-16.56.15c-6.24-1.13-31.15 11.95-31.15 11.95Z" style="fill:#4274D9"/><path d="M413.77 197.56s-.2 17.16 3.89 16 12.33-8.49 12.67-16.19Z" style="fill:#ffbe9d"/><path d="M414.81 227.63a38 38 0 0 1 .35-6.08 35 35 0 0 1 .88-6 37 37 0 0 1-.36 6.09 36 36 0 0 1-.87 5.99m2.61-1.39a23 23 0 0 1-.39-4.87 24 24 0 0 1 .13-4.89 24 24 0 0 1 .39 4.88 22 22 0 0 1-.13 4.88m-3.67 3.07c-.14 0-.24-.44 0-.93s.63-.71.72-.6-.07.43-.24.81-.33.73-.48.72" style="fill:#293681"/><path d="M414.31 229.31c-.14 0-.19-.36-.12-.75s.26-.67.4-.64.19.36.12.75-.26.67-.4.64" style="fill:#293681"/><path d="M414.84 229.32c-.14 0-.29-.29-.33-.68s.05-.71.2-.72.29.29.32.67-.03.71-.19.73" style="fill:#293681"/><path d="M415.71 229.59c-.15 0-.26-.5-.52-1s-.56-.94-.46-1.06.63.18.94.84.18 1.23.04 1.22m1.81-1.81c-.13.05-.4-.38-.4-1s.27-1 .4-1 .12.47.12 1 .02.95-.12 1m.54-.28c-.14 0-.29-.32-.33-.74s0-.78.19-.79.29.32.33.74-.05.78-.19.79" style="fill:#293681"/><path d="M418.91 227.36c-.11.09-.42-.12-.69-.47s-.4-.7-.28-.78.42.12.69.46.37.7.28.79" style="fill:#293681"/><path d="M419.19 227.08c-.13.06-.38-.2-.7-.48s-.6-.49-.55-.63.5-.12.9.24.48.79.35.87m-6.67-27.63c0-.06.3-.21.65.11a.84.84 0 0 1-.09 1.18.8.8 0 0 1-1.18-.09l-.12-.17a.9.9 0 0 1 .11-.8c.29-.38.64-.29.62-.23a1 1 0 0 0-.3.42c-.1.27 0 .63.41.58s.44-.4.28-.65-.37-.27-.38-.35m.4 3.23c-.09.11-.37 0-.64-.14s-.42-.44-.34-.56.37-.06.64.14.42.44.34.56m.26.68c.12.09 0 .44-.4.59s-.73 0-.7-.15.26-.23.51-.33.48-.2.59-.11m.02 1.69c.11.09 0 .35-.15.58s-.44.35-.55.25-.05-.35.15-.58.43-.3.55-.25m-.43 1.83c0-.06.4-.2.87.23a1 1 0 0 1 .27 1 1.1 1.1 0 0 1-1.06.82 1.1 1.1 0 0 1-1-.86.9.9 0 0 1 .45-1c.58-.32 1 0 .9.05a1.5 1.5 0 0 0-.69.25.5.5 0 0 0-.19.58.7.7 0 0 0 .58.45.7.7 0 0 0 .64-.73 1 1 0 0 0-.14-.38c-.3-.29-.64-.29-.63-.41m1.12 2.91c.07.13-.15.37-.39.64s-.44.52-.58.47-.12-.45.19-.81.72-.43.78-.3m.56 1.81c.13.05.11.45-.2.81s-.71.43-.78.31.15-.38.39-.65.45-.52.59-.47m.3 2.93c-.14 0-.29-.32-.32-.75s0-.77.19-.79.29.32.32.75-.04.78-.19.79m4.86.47c-.07.12-.35.1-.62 0s-.43-.38-.36-.51.35-.1.62 0 .43.33.36.51m1.69-2c.1.1-.07.43-.37.74s-.64.48-.74.38.06-.43.37-.74.63-.47.74-.38m1.38-1.12c0-.08.26-.12.64-.11h.05l.07.06a.8.8 0 0 1 .21.69.7.7 0 0 1-.65.6.8.8 0 0 1-.81-.49.7.7 0 0 1 .16-.74c.33-.3.64-.15.6-.09s-.2.1-.31.32a.3.3 0 0 0 0 .32.4.4 0 0 0 .33.16c.21 0 .31-.37.2-.5l.12.06c-.39-.1-.62-.16-.61-.28m1.43-.27c-.14 0-.2-.37-.12-.75s.26-.67.4-.65.19.37.11.75-.25.68-.39.65m2.19-1.54c-.05.13-.38.11-.73 0s-.58-.39-.52-.52.39-.11.73 0 .58.39.52.52m.25-1.9c.06 0 .05.18.17.31s.27.16.38 0 0-.28-.16-.34a1 1 0 0 0-.36 0c-.06 0 0-.28.34-.35a.6.6 0 0 1 .58.2.65.65 0 0 1 .05.78.7.7 0 0 1-.72.32.6.6 0 0 1-.44-.42c-.1-.38.11-.55.16-.5m1.53-1.58a.5.5 0 0 1-.29-.83c.1 0 .31.1.39.33s.03.46-.1.5m1.43-1.4c-.07.12-.35.1-.62-.06s-.43-.38-.35-.5.34-.1.61.05.43.38.36.51m.98-2.1c.06.14-.18.37-.52.52s-.68.17-.74 0 .18-.36.52-.51a.8.8 0 0 1 .74-.01m.45-2.51c0-.05.19-.24.53-.06a.7.7 0 0 1 .34.55.73.73 0 0 1-1.27.49.7.7 0 0 1-.11-.64c.13-.35.41-.37.42-.3s-.08.18-.06.37.14.36.36.28.22-.28.09-.45-.24-.17-.3-.24m1.37-2.19c0 .14-.22.32-.57.4s-.65 0-.68-.11.22-.32.57-.4.65-.03.68.11m-1.4-.73.55-.42m-45.97 14.68c-.13 0-.18-.29-.09-.55s.26-.43.39-.39.18.29.1.55-.26.47-.4.39m1.2 1.45c0-.06.18-.25.54-.09a.7.7 0 0 1 0 1.28.7.7 0 0 1-.84-.1.7.7 0 0 1-.2-.63c.07-.39.36-.45.38-.39s-.06.2 0 .4.2.38.45.26.2-.34 0-.51-.3-.15-.33-.22m1.49 3.27c-.06.13-.37.13-.7 0s-.54-.35-.49-.48.37-.13.7 0 .54.35.49.48m.37 2c-.05.14-.29.18-.55.1s-.43-.26-.39-.4.29-.18.55-.09.43.26.39.39m.61 1.36c.12.07.09.36-.08.64s-.4.46-.52.38-.09-.36.07-.64a.7.7 0 0 1 .53-.38m.36 1.39c-.07 0 .17-.37.68-.23a1 1 0 0 1 .63.6.8.8 0 0 1-.52 1 1 1 0 0 1-1.07-.21.7.7 0 0 1 0-.93.44.44 0 0 1 .62 0c.11.13.06.23 0 .23a.2.2 0 0 1-.15-.06.15.15 0 0 0-.22.08.3.3 0 0 0 .09.36.6.6 0 0 0 .53.06c.41-.15.24-.61-.06-.76s-.48-.08-.53-.14M391 224c.1.1 0 .33-.18.51s-.43.22-.53.12 0-.34.18-.51.4-.25.53-.12m.54 1.72c.11.1 0 .35-.17.56s-.45.31-.56.21 0-.35.18-.56.45-.31.55-.21m10.21 44.53c-.12.07-.39-.16-.58-.52s-.26-.7-.14-.77.39.16.59.52.26.7.13.77m.87 0c-.13.06-.37-.18-.53-.54s-.18-.69 0-.75.37.18.53.54.13.69 0 .75m1.23.65v.32c0 .15.15.21.29.13s.13-.19 0-.32-.23-.11-.27-.18.12-.25.44-.15a.6.6 0 0 1 .39.74.6.6 0 0 1-.3.35.6.6 0 0 1-.74 0 .6.6 0 0 1-.19-.54c.11-.37.36-.42.38-.35m3.08.65c.09.11-.1.4-.42.64s-.64.34-.73.22.1-.4.42-.64.65-.34.73-.22m1.01 1c.06.13-.08.33-.31.45s-.49.11-.55 0 .07-.33.31-.45.49-.12.55 0m1.42 1.59c-.15 0-.29-.19-.34-.47s.05-.52.19-.54.29.19.33.47-.04.52-.18.54m2.29-.03a1 1 0 0 0 0 .39c.06.2.19.34.41.21s.16-.32 0-.46-.32-.1-.36-.16.12-.28.5-.18a.7.7 0 0 1 .47.46.73.73 0 0 1-.55.87.7.7 0 0 1-.62-.14.7.7 0 0 1-.21-.62c.05-.39.34-.48.36-.37m2.72 1.05c.1.11-.05.39-.33.63s-.58.35-.67.24.05-.39.33-.63.58-.35.67-.24m1.8 1.07c.1.1-.06.41-.43.58s-.72.08-.73-.07.23-.28.51-.41.54-.21.65-.1m1.36 1.95c-.14.05-.32-.11-.4-.35s0-.47.1-.51.32.11.4.35.03.47-.1.51m1.54-.92c-.06 0 .06-.3.44-.28a.62.62 0 0 1 .25 1.17.64.64 0 0 1-.84-.11.6.6 0 0 1-.05-.66c.19-.34.51-.27.48-.2a1 1 0 0 0-.13.33c0 .18.08.3.27.19s.12-.25-.06-.36-.3-.03-.36-.08m1.44-1.4c-.12.08-.33 0-.47-.21s-.15-.43 0-.51.33 0 .47.21.12.43 0 .51m.71-1.15c-.1.1-.31.06-.47-.1s-.21-.37-.11-.47.32-.06.48.1.2.37.1.47m.78-2.2c-.07 0 .08-.27.39-.16a.5.5 0 0 1 .33.44.6.6 0 0 1-.63.54.6.6 0 0 1-.45-.26.5.5 0 0 1 0-.51c.12-.26.34-.27.36-.21v.3a.2.2 0 0 0 .07.15h.2v-.11zm1.6 1.63a.3.3 0 0 1-.18-.39.3.3 0 0 1 .32-.26.3.3 0 0 1 .18.38.3.3 0 0 1-.32.27m.73.86a.5.5 0 0 1-.12-.43.4.4 0 0 1 .26-.36c.14 0 .31.17.26.45s-.29.43-.4.34m1.01 1.16a.4.4 0 0 1-.44.12.4.4 0 0 1-.36-.27c0-.14.18-.3.46-.25s.41.24.34.4m.82.98c-.05-.05.08-.25.39-.2a.6.6 0 0 1 .43.36.6.6 0 0 1-.41.74.6.6 0 0 1-.59-.15.5.5 0 0 1 0-.57c.16-.3.44-.22.41-.15a.5.5 0 0 0-.07.27c0 .13 0 .13.06.13h.1c.1 0 .07-.06.08-.09a.2.2 0 0 0-.09-.15c-.15-.13-.27-.13-.31-.19m1.28 1.98a.3.3 0 0 1-.22-.36.3.3 0 0 1 .29-.29.3.3 0 0 1 .23.34.3.3 0 0 1-.3.31m1.94-1.03c0 .14-.28.21-.56.14s-.48-.23-.45-.37.29-.2.57-.14.47.28.44.37m.73-.35a.33.33 0 0 1-.29-.33c0-.2.08-.38.23-.39s.27.14.29.34-.08.37-.23.38m1.36-1.08c-.14 0-.26-.16-.26-.36s.12-.36.26-.36.26.16.26.36-.11.36-.26.36m1.05-1.47c0-.05.18-.25.51-.05a.6.6 0 0 1 .27.58.6.6 0 0 1-.66.5.58.58 0 0 1-.28-1.11c.34-.17.55.06.49.11s-.18 0-.28.19a.3.3 0 0 0-.07.21.3.3 0 0 0 .16.08q.15.02.17-.07v-.21c0-.07-.28-.17-.31-.23m2.71-.84c-.11.11-.3.08-.49.06s-.39-.08-.45-.21.16-.37.53-.31.51.37.41.46m1.37-.72c-.07.13-.35.12-.65.07s-.56-.14-.58-.29.29-.3.67-.23.63.33.56.45m.78-.63c-.14 0-.24-.19-.23-.39s.15-.35.3-.33.24.18.22.38a.34.34 0 0 1-.29.34m1.18-1.85c-.05 0 .1-.27.46-.2a.6.6 0 0 1 .43.48.7.7 0 0 1-.41.7.64.64 0 0 1-.76-.32.5.5 0 0 1 .14-.65c.32-.23.55 0 .5 0s-.17.09-.24.23 0 .12 0 .15a.2.2 0 0 0 .16.07.3.3 0 0 0 .11-.17.2.2 0 0 0-.08-.17c-.11-.08-.27-.06-.31-.12m1.71-.05a.34.34 0 0 1-.19-.41.3.3 0 0 1 .33-.31c.14 0 .22.21.18.41s-.18.34-.32.31m1.45-1.22a.3.3 0 0 1-.22-.36.26.26 0 0 1 .23-.3.27.27 0 0 1 .31.23v.13a.3.3 0 0 1-.32.3m2.04-1.18c-.08.12-.33.1-.59 0s-.49-.15-.51-.3.27-.29.63-.21.55.39.47.51m.98-.7c-.13.06-.33-.13-.25-.39s.34-.31.42-.19a.5.5 0 0 1 .07.34.4.4 0 0 1-.24.24m1.18-1.15a.3.3 0 0 1-.22-.36.3.3 0 0 1 .3-.29.3.3 0 0 1 .22.35.3.3 0 0 1-.3.3" style="fill:#293681"/><path d="m431.5 213.73-6.63 6.67 16.06 15.79s3.27-9.52 5.55-17.9c1.61-5.92-14.98-4.56-14.98-4.56" style="fill:#4274D9"/><path d="M428.91 221c-.14 0-.29-.29-.33-.67s.05-.71.19-.72.29.28.33.67-.05.72-.19.72m1.53.31c0 .14-.25.26-.56.26s-.55-.12-.55-.26.25-.26.55-.26.56.11.56.26m.42 2.22c-.13-.08-.12-.31-.12-.56s0-.47.12-.55.4.14.4.55-.26.65-.4.56m1.32.22c-.06 0 .17-.32.6-.18a.8.8 0 0 1 .52.58.78.78 0 0 1-1.47.44.7.7 0 0 1 .2-.77.6.6 0 0 1 .48-.16c.13 0 .17.1.15.12a.7.7 0 0 0-.35.28c-.13.22-.06.51.29.42s.26-.41 0-.57-.38-.1-.42-.16m1.73 2.7c-.13 0-.18-.27-.11-.5s.25-.38.39-.34.19.27.11.5-.25.38-.39.34m1.5-.29c.14 0 .19.42.11.88s-.26.82-.4.79-.19-.42-.11-.88.26-.81.4-.79M437 228c0 .14-.25.29-.6.33s-.63-.05-.65-.19.25-.29.6-.33.65.02.65.19m.65.76c0-.06.21-.22.59-.06a.8.8 0 0 1 .47.55.8.8 0 0 1-.41.85.7.7 0 0 1-.95-.21.64.64 0 0 1 .14-.77.5.5 0 0 1 .51-.12q.17.1.12.14a.4.4 0 0 0-.32.24c-.11.24 0 .4.29.28s.19-.44 0-.62-.43-.2-.44-.28m1.68 3.53c-.14 0-.26-.38-.26-.84s.12-.83.26-.83.26.37.26.83-.11.84-.26.84m-2.42-25.4a9 9 0 0 1-1.44 2.15c-1 1.26-2.38 3-4 4.77s-3.1 3.44-4.19 4.6a14 14 0 0 1-1.85 1.8 13 13 0 0 1 1.57-2.05c1-1.21 2.48-2.87 4.08-4.69l4.1-4.67a18 18 0 0 1 1.73-1.91m11.23 59.84c0 .14-.3.19-.6.12s-.51-.25-.48-.39.31-.19.6-.12.51.25.48.39m.76-1.22c0-.05.06-.21.35-.23a.5.5 0 0 1 .44.3.46.46 0 0 1-.21.63h-.1c-.5.13-.93-.36-.71-.74a.3.3 0 0 1 .33-.16.1.1 0 0 1 .09.12.2.2 0 0 0-.09.2s.15.11.24.08a.1.1 0 0 0-.06-.1c-.11-.03-.25-.03-.28-.1" style="fill:#293681"/><path d="M363.79 230.06c-.57-1.89-7.74-5.77-6.66-6.82 1.4-1.38 7.3 4.38 7.83 4.83s1.18-.32.68-.7c-.72-.55-8.18-6.47-6.81-7.83.76-.76 2 .77 2 .77s6.58 6.07 7.21 5.4-3.12-4.37-4.47-5.52-1.34-2.26-.36-2.44c.66-.13 4.88 3.31 6.18 4.49s4.85 4.46 4.38 1.39v-.14c-.54-3 0-5.51.7-6.11a1 1 0 0 1 1.7.83 1 1 0 0 1 0 .45v.22a16 16 0 0 0 .21 3.13 8 8 0 0 0 .87 2.66c.51 1 1 1.76 1.4 2.43 4.79 2.64 18.58 9.61 32.39 10.67 2.5.19 15.15-16.17 15.15-16.17l12.41 12.19c-1.68 2.87-2.27 3.53-10.7 15.06-13.75 18.81-57-12.34-57-12.34l-.4-.2a96 96 0 0 1-9.56-5.36c-3.72-2.61-3.5-2.95-3.13-3.35.84-1.05 6.56 4.4 5.98 2.46" style="fill:#ffbe9d"/></g></svg>