<svg xmlns="http://www.w3.org/2000/svg" viewBox="0 0 750 500"><rect width="163.56" height="6.51" x="72.329" y="90.032" rx="2.12" ry="2.12" style="fill:#e0e0e0"/><path d="M82.04 95.21h144.13v127.9H82.04z" style="fill:#e6e6e6"/><path d="M85.83 98.72h136.73v120.95H85.83z" style="fill:#f5f5f5"/><path d="m190.47 98.72 32.09 120.7V162.7l-16.94-63.98zm-11.36 0 32.37 120.95h5.16L184.27 98.72zm-93.28 76.32v19.33l6.55 25.3h5.17z" style="fill:#fff"/><path d="M174.87 96.54h2.3v125.83h-2.3zm-44.63 0h2.3v125.83h-2.3z" style="fill:#e6e6e6"/><path d="M105.53 92.12s-3.32 43.27-22.39 65.32c0 0 13.89 55.7 13.88 75.1l-25.81-4.76 9.3-70-4.45-65.66zm97.15 0s3.31 43.27 22.38 65.32c0 0-13.89 55.7-13.88 75.1l25.82-4.76-9.31-70 4.45-65.66zm471.05 247.66H493a5.87 5.87 0 0 1-5.87-5.86V70.65a5.87 5.87 0 0 1 5.87-5.87h180.74a5.87 5.87 0 0 1 5.87 5.87v263.27a5.87 5.87 0 0 1-5.87 5.86M493 65.04a5.6 5.6 0 0 0-5.62 5.6v263.28a5.6 5.6 0 0 0 5.62 5.61h180.74a5.6 5.6 0 0 0 5.62-5.61V70.65a5.6 5.6 0 0 0-5.62-5.62zm-27.7 274.74H284.56a5.87 5.87 0 0 1-5.86-5.86V70.65a5.87 5.87 0 0 1 5.86-5.87h180.75a5.87 5.87 0 0 1 5.86 5.87v263.27a5.87 5.87 0 0 1-5.86 5.86M284.56 65.04a5.6 5.6 0 0 0-5.61 5.6v263.28a5.6 5.6 0 0 0 5.61 5.61h180.75a5.6 5.6 0 0 0 5.6-5.61V70.65a5.6 5.6 0 0 0-5.6-5.62z" style="fill:#e0e0e0"/><path d="M257.01 339.78H76.27a5.87 5.87 0 0 1-5.87-5.86V70.65a5.87 5.87 0 0 1 5.87-5.87H257a5.87 5.87 0 0 1 5.87 5.87v263.27a5.87 5.87 0 0 1-5.87 5.86M76.27 65.04a5.6 5.6 0 0 0-5.62 5.6v263.28a5.6 5.6 0 0 0 5.62 5.61H257a5.6 5.6 0 0 0 5.62-5.61V70.65a5.6 5.6 0 0 0-5.62-5.62zM0 400.85h750v.12H0z" style="fill:#e0e0e0"/><path d="M653.63 430.23h55.72v.42h-55.72zm-158.59 4.56h14.63v.42h-14.63zm-454.4-17.36h72.68v.42H40.65zm87.66 0h10.65v.42H128.3zm45.29 7.1h157.6v.43H173.6z" style="fill:#ebebeb"/><rect width="131.725" height="84.422" x="563.285" y="75.096" rx="6.71" ry="6.71" style="fill:#ebebeb" transform="rotate(18.736 629.147 117.307)"/><rect width="26.182" height="22.604" x="587.598" y="81.439" rx="2.832" ry="2.832" style="fill:#fafafa" transform="rotate(18.736 600.689 92.741)"/><path d="m579.22 115.57 16.12 5.47c1.83.62 2.62-2.28.8-2.9L580 112.67c-1.83-.62-2.62 2.28-.8 2.9m24.83 8.42 16.12 5.46c1.83.63 2.62-2.27.8-2.89l-16.13-5.47c-1.83-.62-2.62 2.28-.8 2.9m24.83 8.42 16.12 5.46c1.83.62 2.62-2.27.8-2.89l-16.12-5.47c-1.84-.62-2.62 2.28-.8 2.9m24.82 8.41 16.12 5.47c1.84.62 2.62-2.27.8-2.9l-16.12-5.46c-1.83-.62-2.62 2.28-.8 2.9m-426.36 134.8c8.94 6.67 21.26 5.27 27.52-3.12l2.23-2.99-32.36-24.15-2.23 2.99c-6.26 8.39-4.1 20.6 4.84 27.26" style="fill:#e0e0e0"/><circle cx="240.887" cy="257.447" r="20.191" style="fill:#ebebeb" transform="rotate(-18.069 240.887 257.448)"/><path d="M231.22 270.4a16.17 16.17 0 1 0 19.34-25.9 16.17 16.17 0 0 0-19.34 25.9" style="fill:#f5f5f5"/><path d="M247.5 259.27q0 1.59-.99 3l.38.37a1 1 0 0 1 .28.72 1 1 0 0 1-.29.72 1 1 0 0 1-.7.26 1 1 0 0 1-.7-.33l-.33-.33q-1.22.92-2.53 1.14-1.3.24-2.36-.17-.5-.2-.72-.44a1 1 0 0 1-.29-.74q0-.44.33-.75.26-.25.6-.3c.35-.03.47.02.68.12q.66.34 1.44.23a4 4 0 0 0 1.48-.56l-3.12-3.34q-1.67.82-3.02.89t-2.38-1q-1.04-1.07-1.02-2.5.03-1.45 1.15-2.87l-.3-.32a1 1 0 0 1-.3-.71 1 1 0 0 1 .27-.7 1 1 0 0 1 .72-.26q.43.01.71.3l.3.3q1.36-1.07 2.62-1.17t2.12.8q.33.33.33.76a1 1 0 0 1-.3.73 1 1 0 0 1-.64.28 1 1 0 0 1-.66-.24q-.36-.28-.93-.21t-1.22.48l2.77 2.97q3.65-1.79 5.58.2 1.06 1.09 1.05 2.67m-9.92-1.63q.6 0 1.54-.37l-2.38-2.48q-.54.73-.56 1.36a1.4 1.4 0 0 0 .42 1.1q.38.4.98.4m8 1.68q-.02-.76-.5-1.25-.38-.4-1.02-.45t-1.66.38l2.72 2.83q.47-.75.45-1.51" style="fill:#e0e0e0"/><path d="M224.8 258.51a16.23 16.23 0 0 1 32.36-2.73 16.23 16.23 0 0 0-32.07 4.67 16 16 0 0 1-.28-1.94M430.86 96.6c-6.15 15.78.88 33.26 15.7 39.03l5.27 2.06 22.28-57.17-5.28-2.06c-14.82-5.77-31.82 2.34-37.97 18.13" style="fill:#e0e0e0"/><circle cx="462.969" cy="109.112" r="30.679" style="fill:#ebebeb" transform="rotate(-75.168 462.97 109.112)"/><path d="M440.08 100.2a24.56 24.56 0 1 0 45.78 17.83 24.56 24.56 0 0 0-45.78-17.84" style="fill:#f5f5f5"/><path d="M462.98 119.55q-2.33.63-4.78-.25l-.41.7q-.31.53-.94.71t-1.16-.13a1.4 1.4 0 0 1-.67-.92 1.6 1.6 0 0 1 .2-1.17l.35-.61q-1.83-1.42-2.7-3.24t-.7-3.53q.1-.8.34-1.23.33-.56.98-.73a1.6 1.6 0 0 1 1.23.18q.47.28.67.77c.2.5.17.68.1 1.04q-.22 1.1.26 2.2.49 1.1 1.42 1.94l3.62-5.92q-1.88-2.12-2.52-4.07t.5-3.89q1.14-1.96 3.26-2.5t4.65.53l.35-.6q.3-.52.93-.7.61-.2 1.11.1.54.32.69.95.15.64-.16 1.17l-.32.56q2.13 1.55 2.78 3.36t-.3 3.43q-.36.62-.99.8-.63.17-1.19-.16a1.4 1.4 0 0 1-.66-.82 1.5 1.5 0 0 1 .07-1.06q.26-.64-.07-1.45-.33-.82-1.2-1.59l-3.22 5.25q4.1 4.62 1.97 8.26-1.17 1.99-3.5 2.62m-1.62-15.19q.24.88 1.17 2.1l2.67-4.49q-1.29-.49-2.23-.27t-1.43 1.06q-.42.73-.18 1.6m.77 12.39q1.1-.33 1.63-1.22.43-.73.24-1.69-.2-.95-1.22-2.27l-3.05 5.13q1.28.37 2.4.05" style="fill:#e0e0e0"/><path d="M454.9 86a24.67 24.67 0 0 1 17.1 46.27 24.67 24.67 0 0 0-19.82-45.08 25 25 0 0 1 2.73-1.2m86.28 285.64c.07 11.15 8.62 20.13 19.08 20.07l3.73-.03-.26-40.38-3.73.02c-10.46.07-18.9 9.17-18.82 20.32" style="fill:#e0e0e0"/><circle cx="563.87" cy="371.479" r="20.192" style="fill:#ebebeb" transform="rotate(-76.826 563.87 371.48)"/><path d="M547.7 371.58a16.17 16.17 0 1 0 32.33-.2 16.17 16.17 0 0 0-32.33.2" style="fill:#f5f5f5"/><text x="563.87" y="378.5" fill="#e0e0e0" font-family="Arial, sans-serif" font-size="17" font-weight="700" text-anchor="middle">₹</text><path d="M553.32 359.3a16.23 16.23 0 0 1 21.7 24.15 16.23 16.23 0 0 0-23.07-22.76q.64-.74 1.37-1.4" style="fill:#e0e0e0"/><path d="m556.32 145.34-10.11-5.13a694 694 0 0 1-72.88-42.67c-29.83-20-58.68-42.62-92.6-54.45C292.6 12.38 178.75 67.01 151.9 157.67c-6.34 21.38-7.62 43.99-4.57 66.04 4.98 35.96 21.78 70.56 49.57 94.35 38.55 33.01 90.18 36.82 138.8 38.99 55.74 2.48 111.9-3.2 165.52-18.9 48.16-14.11 97.48-33.4 130.6-72.73 15.7-18.65 33.65-48.67 24.33-73.87-6.55-17.75-21.4-18.73-37.46-21.85-21.53-4.18-42.44-14.26-62.37-24.36" style="fill:#d0e7e6"/><g style="opacity:.85"><path d="m556.32 145.34-10.11-5.13a694 694 0 0 1-72.88-42.67c-29.83-20-58.68-42.62-92.6-54.45C292.6 12.38 178.75 67.01 151.9 157.67c-6.34 21.38-7.62 43.99-4.57 66.04 4.98 35.96 21.78 70.56 49.57 94.35 38.55 33.01 90.18 36.82 138.8 38.99 55.74 2.48 111.9-3.2 165.52-18.9 48.16-14.11 97.48-33.4 130.6-72.73 15.7-18.65 33.65-48.67 24.33-73.87-6.55-17.75-21.4-18.73-37.46-21.85-21.53-4.18-42.44-14.26-62.37-24.36" style="fill:#fff"/></g><path d="M706.06 451.16c0 3.4-148.07 6.14-330.71 6.14s-330.71-2.75-330.71-6.14 148.06-6.13 330.7-6.13 330.72 2.75 330.72 6.13" style="fill:#f5f5f5"/><path d="m482 347.57-16.21 86.14h-78.36l13.71-86.14z" style="fill:#263238"/><path d="m482 347.57-16.21 86.14h-78.36l13.71-86.14z" style="fill:#fff;opacity:.8"/><path d="M338.45 430.29h190.51v8.3a8.36 8.36 0 0 1-8.35 8.35h-173.8a8.36 8.36 0 0 1-8.36-8.36z" style="fill:#263238" transform="matrix(-1 0 0 -1 867.418 877.223)"/><path d="M338.45 430.29h190.51v8.3a8.36 8.36 0 0 1-8.35 8.35h-173.8a8.36 8.36 0 0 1-8.36-8.36z" style="fill:#fff;opacity:.8" transform="matrix(-1 0 0 -1 867.418 877.223)"/><path d="M598.44 121.88h-334.4a8.56 8.56 0 0 0-8.57 8.56v226.38a8.56 8.56 0 0 0 8.56 8.56h334.41a8.56 8.56 0 0 0 8.56-8.56V130.44a8.56 8.56 0 0 0-8.56-8.56" style="fill:#263238"/><g style="opacity:.8"><path d="M598.44 121.88h-334.4a8.56 8.56 0 0 0-8.57 8.56v226.38a8.56 8.56 0 0 0 8.56 8.56h334.41a8.56 8.56 0 0 0 8.56-8.56V130.44a8.56 8.56 0 0 0-8.56-8.56" style="fill:#fff"/></g><path d="M270.28 129.23H599.3v218.3h-329z" style="fill:#4274d9"/><path d="M270.28 129.23H599.3v218.3h-329z" style="fill:#fff"/><path d="M270.02 129.23h329.4v218.56h-329.4z" style="fill:#4274d9"/><g style="opacity:.5"><path d="M270.02 129.23h329.4v218.56h-329.4z" style="fill:#fff"/></g><path d="M270.02 129.23h107.23V348.1H270.02z" style="fill:#4274d9"/><g style="opacity:.3"><path d="M593.17 139.83a3.73 3.73 0 1 1-7.45 0 3.73 3.73 0 0 1 7.45 0" style="fill:#fff"/></g><g style="opacity:.3"><path d="M582.58 139.83a3.73 3.73 0 1 1-7.46 0 3.73 3.73 0 0 1 7.46 0" style="fill:#fff"/></g><g style="opacity:.3"><path d="M571.99 139.83a3.73 3.73 0 1 1-7.46 0 3.73 3.73 0 0 1 7.46 0" style="fill:#fff"/></g><path d="M271.12 365.38h-7.1a8.55 8.55 0 0 1-8.54-8.55V130.44a8.55 8.55 0 0 1 8.55-8.56h7.09a8.55 8.55 0 0 0-8.55 8.56v226.39a8.55 8.55 0 0 0 8.55 8.55"/><path d="M270.02 296.03c0-1.9 15.13-26.57 48.4-52.51s74.41-8.23 114.34-36.7 69.41-77.59 69.41-77.59l-71.12-.27s-9.18 55.09-51.53 62.04-109.5 49.35-109.5 49.35zm37.96 52.07s159.1-134.76 179.68-160.07 70.63-59.07 70.63-59.07h16.83s-49.96 38.83-72.34 59.07S335.2 348.1 335.2 348.1z" style="fill:#fff;opacity:.1"/><path d="M320.1 164.41h-14.61a.48.48 0 0 1-.3-.86l6.9-5.37 7.7-6a.5.5 0 0 1 .6 0l7.7 6 6.9 5.37c.36.28.16.86-.3.86z" style="fill:#f3f3ee"/><g style="opacity:.7"><path d="M320.1 164.41h-14.61a.48.48 0 0 1-.3-.86l6.9-5.37 7.7-6a.5.5 0 0 1 .6 0l7.7 6 6.9 5.37c.36.28.16.86-.3.86z" style="fill:#fff"/></g><path d="M330.42 162.85h-20.65a.4.4 0 0 1-.24-.7l10.32-8.04a.4.4 0 0 1 .48 0l10.33 8.04a.4.4 0 0 1-.24.7m-20.1-.58h19.55l-9.78-7.61zm-1.95 2.14h2.79v11.92h-2.8z" style="fill:#f3f3ee"/><g style="opacity:.7"><path d="M308.37 164.4h2.79v11.93h-2.8z" style="fill:#fff"/></g><path d="M314.7 164.4h2.78v11.93h-2.79z" style="fill:#f3f3ee"/><g style="opacity:.7"><path d="M314.7 164.4h2.78v11.93h-2.79z" style="fill:#fff"/></g><path d="M323.28 164.4h2.79v11.93h-2.8z" style="fill:#f3f3ee"/><g style="opacity:.7"><path d="M323.28 164.4h2.79v11.93h-2.8z" style="fill:#fff"/></g><path d="M329.5 164.4h2.79v11.93h-2.79z" style="fill:#f3f3ee"/><g style="opacity:.7"><path d="M329.5 164.4h2.79v11.93h-2.79z" style="fill:#fff"/></g><path d="M334.97 179.4h-29.76a.66.66 0 0 1-.63-.82l.45-1.76a.7.7 0 0 1 .63-.5h28.75c.29 0 .54.2.63.47l.56 1.75a.66.66 0 0 1-.63.86" style="fill:#f3f3ee"/><g style="opacity:.7"><path d="M334.97 179.4h-29.76a.66.66 0 0 1-.63-.82l.45-1.76a.7.7 0 0 1 .63-.5h28.75c.29 0 .54.2.63.47l.56 1.75a.66.66 0 0 1-.63.86" style="fill:#fff"/></g><path d="M320.1 161.29a2 2 0 0 1-1.99-1.98 1.98 1.98 0 0 1 3.96 0 2 2 0 0 1-1.98 1.98m0-3.37a1.4 1.4 0 0 0 0 2.79 1.4 1.4 0 0 0 0-2.8" style="fill:#f3f3ee"/><rect width="28.64" height="1.732" x="305.772" y="164.409" rx=".697" ry=".697" style="fill:#f3f3ee"/><g style="opacity:.7"><rect width="28.64" height="1.732" x="305.772" y="164.409" rx=".697" ry=".697" style="fill:#fff"/></g><path d="M333.78 164.8h-27.37a.29.29 0 1 1 0-.59h27.37a.29.29 0 1 1 0 .58m0 13.42h-27.37a.29.29 0 1 1 0-.58h27.37a.29.29 0 1 1 0 .58" style="fill:#f3f3ee"/><path d="M294.1 186.2h53.74v4.79H294.1zm0 24.28h53.74v4.8H294.1zm0 10.9h26v4.79h-26zm0 27.15h61.68v4.79H294.1zm0 11.65h21.95v4.8h-21.96zm47.8 0h15.02v4.8H341.9zm-47.8 12.68h21.95v4.8h-21.96zm47.8 0h15.02v4.8H341.9zm-47.8 12.68h21.95v4.8h-21.96zm47.8 0h15.02v4.8H341.9zm-47.8 12.68h21.95v4.8h-21.96zm47.8 0h15.02v4.8H341.9zm-47.8 12.68h21.95v4.8h-21.96zm47.8 0h15.02v4.8H341.9z" style="fill:#fff;opacity:.7"/><rect width="73.436" height="47.065" x="402.232" y="173.127" rx="1.665" ry="1.665" style="fill:#293681"/><rect width="14.596" height="12.601" x="412.228" y="182.486" rx="2.059" ry="2.059" style="fill:#fff;opacity:.6"/><path d="M412.23 204.68h9.49c1.07 0 1.08-1.67 0-1.67h-9.5c-1.07 0-1.07 1.67 0 1.67m14.62 0h9.5c1.07 0 1.07-1.67 0-1.67h-9.5c-1.07 0-1.08 1.67 0 1.67m14.61 0h9.5c1.07 0 1.07-1.67 0-1.67h-9.5c-1.07 0-1.07 1.67 0 1.67m14.62 0h9.49c1.07 0 1.07-1.67 0-1.67h-9.5c-1.07 0-1.07 1.67 0 1.67" style="opacity:.3"/><path d="M515.1 190.22s4.38-14.56 20.95-15.18c16.57-.63 29.75 3.76 30.25 18.45s-8.03 17.57-8.03 17.57l-.25 7.65h-8.41v-4.51s-11.05.5-15.19-.76v6.53h-9.04l-.12-8.79s-6.65-3.26-8.79-8.9h-4.64c-1.6-4.68-2.14-9.27-.73-12.15z" style="fill:#d98b6b"/><path d="m524.64 181.66-.94-7.9c-.04-.27-.07-.56.06-.8.22-.4.79-.46 1.25-.4 1.96.24 3.65 1.58 4.8 3.2 1.13 1.61 1.79 3.5 2.44 5.38" style="fill:#b86b4e"/><path d="M523.58 178.94c-1.14-1.62-2.84-2.95-4.8-3.2-.46-.05-1.02 0-1.24.41-.13.24-.1.52-.07.8l.94 7.9 7.61-.53c-.65-1.87-1.3-3.76-2.44-5.38" style="fill:#b86b4e"/><path d="M538.43 178.62a27 27 0 0 1 10 .82c.46.13.66-.6.2-.72a28 28 0 0 0-10.2-.85c-.48.05-.48.8 0 .75m-15.58 10.05q.16 1.21-.05 2.38c-.04.2.05.42.26.47.18.04.42-.06.46-.27a8 8 0 0 0 .08-2.58c-.03-.2-.16-.38-.38-.37-.18 0-.4.16-.37.37m43.59 4.59c.85-1.42 2.9-1.34 4.02-.32 1.2 1.08 1.96 3.42 1.24 4.94-.4.87-1.54 1.32-2.2.45-.62-.82-.3-1.94.01-2.82.57-1.55 1.63-3.06 3.2-3.74s3.66-.29 4.58 1.25c.24.41.9.03.65-.38-1.04-1.74-3.33-2.33-5.2-1.69-2.14.75-3.56 2.86-4.15 4.98-.29 1.06-.31 2.31.55 3.13.74.7 1.83.63 2.6-.01 1.73-1.45.93-4.63-.3-6.15-1.38-1.74-4.38-2.13-5.65-.02-.25.42.4.8.65.38m-55.28-2.51a15.5 15.5 0 0 1 1.25 10.7c-.12.47.6.67.72.2.93-3.8.45-7.8-1.32-11.28-.22-.43-.87-.05-.65.38" style="fill:#263238"/><path d="M401.54 242.66h72.97a6.1 6.1 0 0 1 6.12 6.12v72.97a6.1 6.1 0 0 1-6.12 6.12h-72.97a6.1 6.1 0 0 1-6.12-6.12v-72.97a6.1 6.1 0 0 1 6.12-6.12" style="fill:#f3e7d3;opacity:.3"/><path d="M413.98 289.49c2.08 13 13.65 21.94 25.85 20l4.34-.7-7.52-47.05-4.34.7c-12.2 1.94-20.4 14.05-18.33 27.05" style="fill:#c08a2e"/><path d="M413.98 289.49c2.08 13 13.65 21.94 25.85 20l4.34-.7-7.52-47.05-4.34.7c-12.2 1.94-20.4 14.05-18.33 27.05" style="isolation:isolate;opacity:.3"/><circle cx="440.412" cy="285.265" r="23.825" style="fill:#e8b54d" transform="rotate(-2.49 440.41 285.264)"/><path d="M421.58 288.27a19.08 19.08 0 1 0 37.67-6.02 19.08 19.08 0 0 0-37.68 6.02" style="fill:#c08a2e"/><path d="M421.58 288.27a19.08 19.08 0 1 0 37.67-6.02 19.08 19.08 0 0 0-37.68 6.02" style="fill:#fff;opacity:.3"/><text x="440.412" y="292.5" fill="#6b4e16" font-family="Arial, sans-serif" font-size="19" font-weight="700" text-anchor="middle">₹</text><path d="M425.4 272.97a19.4 19.4 0 1 1 30 24.61 19.4 19.4 0 0 0-31.37-22.72q.63-.99 1.37-1.9" style="fill:#c08a2e"/><path d="M425.4 272.97a19.4 19.4 0 1 1 30 24.61 19.4 19.4 0 0 0-31.37-22.72q.63-.99 1.37-1.9" style="isolation:isolate;opacity:.3"/><path d="M519.5 289.05h10.4v12.15h-10.4zm15.94-11.4h10.4v23.55h-10.4zm15.65-11.09h10.4v34.64h-10.4zm50.47 1.37c14.78 11.04 35.17 8.73 45.53-5.15l3.68-4.94-53.54-39.96-3.69 4.94c-10.36 13.88-6.77 34.08 8.02 45.11" style="fill:#e8b54d"/><path d="M601.56 267.94c14.78 11.03 35.17 8.72 45.53-5.16l3.68-4.94-53.54-39.96-3.69 4.94c-10.36 13.88-6.77 34.08 8.02 45.11" style="isolation:isolate;opacity:.3"/><path d="M657.06 233.06a33.4 33.4 0 1 1-66.12 9.6 33.4 33.4 0 0 1 66.12-9.6" style="fill:#c08a2e"/><circle cx="624.003" cy="237.861" r="26.746" style="fill:#e8b54d" transform="rotate(-63.157 624.003 237.861)"/><circle cx="624.003" cy="237.861" r="26.746" style="fill:#fff;opacity:.3" transform="rotate(-63.157 624.003 237.861)"/><text x="624.003" y="246.5" fill="#6b4e16" font-family="Arial, sans-serif" font-size="21" font-weight="700" text-anchor="middle">₹</text><path d="M596.9 240.17a27.2 27.2 0 0 1 54.22-4.58 27.2 27.2 0 0 0-53.75 7.83 27 27 0 0 1-.48-3.25" style="fill:#c08a2e"/><path d="M596.9 240.17a27.2 27.2 0 0 1 54.22-4.58 27.2 27.2 0 0 0-53.75 7.83 27 27 0 0 1-.48-3.25" style="isolation:isolate;opacity:.3"/><path d="M327.6 73.02h-35.1a1.15 1.15 0 0 1-.7-2.05l16.57-12.92 18.52-14.42a1.15 1.15 0 0 1 1.41 0l18.51 14.42 16.58 12.92c.87.67.4 2.05-.7 2.05z" style="fill:#c4633f"/><path d="M327.6 73.02h-35.1a1.15 1.15 0 0 1-.7-2.05l16.57-12.92 18.52-14.42a1.15 1.15 0 0 1 1.41 0l18.51 14.42 16.58 12.92c.87.67.4 2.05-.7 2.05z" style="fill:#fff;opacity:.7"/><path d="M352.4 69.08h-49.62a.74.74 0 0 1-.45-1.33l24.8-19.32a.74.74 0 0 1 .92 0l24.81 19.32a.74.74 0 0 1-.46 1.33m-48.87-1h48.13l-24.07-18.74zm-4.11 4.94h6.7v28.65h-6.7z" style="fill:#e4dcc8"/><path d="M299.42 73.02h6.7v28.65h-6.7z" style="fill:#fff;opacity:.7"/><path d="M314.62 73.02h6.7v28.65h-6.7z" style="fill:#f3f3ee"/><path d="M314.62 73.02h6.7v28.65h-6.7z" style="fill:#fff;opacity:.7"/><path d="M335.25 73.02h6.7v28.65h-6.7z" style="fill:#f3f3ee"/><path d="M335.25 73.02h6.7v28.65h-6.7z" style="fill:#fff;opacity:.7"/><path d="M350.2 73.02h6.7v28.65h-6.7z" style="fill:#f3f3ee"/><path d="M350.2 73.02h6.7v28.65h-6.7z" style="fill:#fff;opacity:.7"/><path d="M363.36 109.04h-71.53a1.58 1.58 0 0 1-1.52-1.96l1.08-4.23a1.6 1.6 0 0 1 1.53-1.18H362c.69 0 1.3.44 1.5 1.1l1.35 4.22a1.58 1.58 0 0 1-1.5 2.05" style="fill:#9c8b6e"/><path d="M363.36 109.04h-71.53a1.58 1.58 0 0 1-1.52-1.96l1.08-4.23a1.6 1.6 0 0 1 1.53-1.18H362c.69 0 1.3.44 1.5 1.1l1.35 4.22a1.58 1.58 0 0 1-1.5 2.05" style="fill:#fff;opacity:.7"/><path d="M327.6 65.32a4.56 4.56 0 0 1-4.56-4.55 4.56 4.56 0 0 1 4.55-4.55 4.56 4.56 0 0 1 4.56 4.55 4.56 4.56 0 0 1-4.56 4.55m0-8.1a3.56 3.56 0 1 0 .01 7.11 3.56 3.56 0 0 0 0-7.11m-32.93 15.8h65.85a1.5 1.5 0 0 1 1.49 1.5v1.18a1.5 1.5 0 0 1-1.5 1.48h-65.84a1.5 1.5 0 0 1-1.49-1.48v-1.2a1.5 1.5 0 0 1 1.49-1.49" style="fill:#c08a2e"/><path d="M294.67 73.02h65.85a1.5 1.5 0 0 1 1.49 1.5v1.18a1.5 1.5 0 0 1-1.5 1.48h-65.84a1.5 1.5 0 0 1-1.49-1.48v-1.2a1.5 1.5 0 0 1 1.49-1.49" style="fill:#fff;opacity:.7"/><path d="M360.49 73.75H294.7a.5.5 0 1 1 0-1h65.79a.5.5 0 1 1 0 1m0 32.24H294.7a.5.5 0 1 1 0-1h65.79a.5.5 0 1 1 0 1m266.4 230.07c.4-.63 5.63-1.99 10.11 4.25l-.48 4.84 2.25-2.92s1.23.95.7 3.33-.88 4.52-.88 4.52 1.98-5.71 2.57-5.27 6.6 8.8 7.7 10.77 3.55 12.08 1.74 13.47c-1.82 1.4-5.87 2.5-10.38.88s-8.87-9.8-8.87-9.8l5.57-4.26-7.01 2.59s-8.43-13.93-3.01-22.4" style="fill:#4e8e6e"/><path d="M626.9 336.06c9.15 15.05 20.92 25.99 23.7 33-1.82 1.38-5.87 2.49-10.38.87s-8.87-9.8-8.87-9.8l5.57-4.26-7.01 2.59s-8.43-13.93-3.01-22.4" style="fill:#fff;opacity:.1"/><path d="M631.98 344.54c.14.63.96 1.35 1.35 1.84q1.66 2.1 3.37 4.19 3.43 4.2 6.89 8.4c7.45 9.03 10.89 20.06 12.66 31.49 1.23 7.98 1.78 16.05 2.5 24.1.04.47.8.48.75 0-1.22-13.62-1.78-27.74-6.55-40.7a51 51 0 0 0-8.2-14.66l-5.8-7.05-4.2-5.17q-.75-.93-1.48-1.88l-.57-.76c-.1-.47-.83-.27-.72.2" style="fill:#263238"/><path d="M698.2 372.1c-.16-.62-4.03-3.04-9.24.87l-.83 4.03-1.08-2.93s-1.24.45-1.41 2.51-.43 3.88-.43 3.88-.16-5.12-.75-4.9-7.56 5.43-8.94 6.73-6.87 7.44-4.82 10.45c1.1 1.6 4.1 3.5 8.16 3.34s9.65-5.68 9.65-5.68l-3.42-4.85 5 3.87s10.34-9.11 8.11-17.32" style="fill:#6fa98c"/><path d="M698.2 372.1c-.16-.62-4.03-3.04-9.24.87l-.83 4.03-1.08-2.93s-1.24.45-1.41 2.51-.43 3.88-.43 3.88-.16-5.12-.75-4.9-7.56 5.43-8.94 6.73-6.87 7.44-4.82 10.45c1.1 1.6 4.1 3.5 8.16 3.34s9.65-5.68 9.65-5.68l-3.42-4.85 5 3.87s10.34-9.11 8.11-17.32" style="opacity:.3"/><path d="M698.1 354.92s.93-6.35-10.27-3.92v7.09l-2.6-6.35s-6.54.2-8.6 2.53v7.36l-3.91-5.6s-7.65 6.78-7.28 12.56a22 22 0 0 0 3.4 10.13c-.76-3.8 23.21-25.68 29.26-23.8m-79.56 20.2s-.93-6.34 10.26-3.91v7.09l2.61-6.34s6.54.19 8.59 2.52v7.36l3.92-5.59s7.65 6.77 7.27 12.55c-.37 5.79-3.4 10.13-3.4 10.13-7.72-13.6-19.55-21.84-29.25-23.8" style="fill:#4e8e6e"/><path d="M618.54 375.13s-.93-6.35 10.26-3.92v7.09l2.62-6.34s6.53.19 8.58 2.52v7.36l3.92-5.59s7.65 6.77 7.28 12.55-3.4 10.13-3.4 10.13c-7.73-13.6-19.56-21.84-29.26-23.8" style="opacity:.3"/><path d="M675.32 306.03c.95-.08 6.34 4.1 3.54 13.43l-5.22 3.26h4.66s0 1.97-2.8 3.27-5.22 2.62-5.22 2.62 7.28-2.43 7.28-1.5-3.73 13.44-4.85 16.05-9.38 12.91-12.18 12.16c-2.8-.74-7.04-3.95-8.9-9.73s2.98-16.49 2.98-16.49l8.58 2.3-8.02-5.03s7.46-19.22 20.15-20.34" style="fill:#6fa98c"/><path d="M675.32 306.03c.95-.08 6.34 4.1 3.54 13.43l-5.22 3.26h4.66s0 1.97-2.8 3.27-5.22 2.62-5.22 2.62 7.28-2.43 7.28-1.5-3.73 13.44-4.85 16.05-9.38 12.91-12.18 12.16c-2.8-.74-7.04-3.95-8.9-9.73s2.98-16.49 2.98-16.49l8.58 2.3-8.02-5.03s7.46-19.22 20.15-20.34" style="opacity:.3"/><path d="M654.74 415.07a297 297 0 0 1 10.22-76.74 299 299 0 0 1 6.44-20.82c.16-.46-.57-.65-.72-.2a298 298 0 0 0-15.84 75.74 298 298 0 0 0-.85 22.02c0 .48.75.48.75 0m43.36-60.53c-3.28.05-6.51 1.94-9.2 3.63a68 68 0 0 0-10.95 8.7 57 57 0 0 0-9.02 10.8c-3.05 4.94-5.11 10.73-6.61 16.3a57 57 0 0 0-1.72 21.63c.06.47.81.48.75 0a55 55 0 0 1 1.04-18.78 67 67 0 0 1 6.32-17.27c2.13-3.92 5.06-7.39 8.16-10.56a71 71 0 0 1 10.75-9.1c2.98-2.02 6.73-4.55 10.48-4.6.48 0 .48-.76 0-.75M652 421.48c-.76-8.24-1.15-17.35-5.37-24.68a51 51 0 0 0-7.22-9.33 52 52 0 0 0-8.68-7.53 32 32 0 0 0-12.09-5.17c-.47-.1-.67.63-.2.72 7.6 1.42 14.13 6.06 19.45 11.48 2.65 2.7 5.18 5.6 7.23 8.79a31 31 0 0 1 4.25 11.07c.98 4.83 1.43 9.75 1.88 14.65.04.48.8.48.75 0" style="fill:#263238"/><path d="M698.18 372.13c-11.17 9.81-23.42 15.66-27.43 20.6 1.11 1.58 4.1 3.5 8.14 3.33s9.63-5.66 9.63-5.66l-3.42-4.84 5 3.86s10.3-9.1 8.08-17.3" style="fill:#fff;opacity:.1"/><path d="M691.36 377.3c-.2.32-1.49 1.02-1.97 1.35q-2.07 1.39-4.16 2.76l-7.18 4.7c-8.4 5.5-13.99 13.97-18.3 22.87-2.88 5.96-5.3 12.13-7.83 18.25-.19.44.54.64.72.2 4.4-10.61 8.41-21.79 15.48-30.98a42 42 0 0 1 10.25-9.66l7.03-4.6 4.52-3c.6-.4 1.7-.88 2.08-1.52.26-.41-.39-.79-.64-.38" style="fill:#263238"/><path d="m641.36 415.3 14.46.48 14.45-.48s5.2 23.55 2.26 29.62c-2.46 5.06-9.9 6.02-15.26 6.2v.04h-2.91v-.04c-5.35-.18-12.8-1.14-15.25-6.2-2.95-6.07 2.25-29.62 2.25-29.62" style="fill:#b4794a"/><path d="M641.62 415.07c0 .62 6.46 1.13 14.42 1.13s14.43-.5 14.43-1.13-6.46-1.14-14.43-1.14-14.42.51-14.42 1.14" style="fill:#263238"/><path d="M669.43 417.84s2.76 18 1.6 23.1c-1.67 7.39-14.44 8.59-14.98 7.66s4.62-6.04 4.53-11.5-1.45-18.44-1.45-18.44z" style="fill:#fff;opacity:.3"/><path d="M675.66 305.93c-8.2 20.87-12.96 38.04-15.1 49.3-2.8-.77-7.13-3.88-8.97-9.7s3.1-16.55 3.1-16.55l8.62 2.38-8.03-5.12s7.63-19.26 20.38-20.3" style="fill:#fff;opacity:.1"/><rect width="88.048" height="74.477" x="211.744" y="359.257" rx="12.266" ry="12.266" style="fill:#263238"/><rect width="88.048" height="74.477" x="211.744" y="359.257" rx="12.266" ry="12.266" style="fill:#fff;isolation:isolate;opacity:.1"/><path d="m257.17 430.8 3.69 22.6h-7.9l-7.28-21.55zm-99.55 0-3.69 22.6h7.92l7.25-21.55z" style="fill:#263238"/><path d="m257.17 430.8 3.69 22.6h-7.9l-7.28-21.55zm-99.55 0-3.69 22.6h7.92l7.25-21.55z" style="fill:#fff;isolation:isolate;opacity:.1"/><path d="m200.3 430.8 3.69 22.6h-7.9l-7.27-21.55zm-107.98 0-3.7 22.6h7.91l7.27-21.55z" style="fill:#263238"/><rect width="196.079" height="52.729" x="76.907" y="383.788" rx="9.109" ry="9.109" style="fill:#263238"/><rect width="196.079" height="52.729" x="76.907" y="383.788" rx="9.109" ry="9.109" style="fill:#fff;isolation:isolate;opacity:.1"/><rect width="127.604" height="52.729" x="145.382" y="383.788" rx="9.109" ry="9.109" style="fill:#fff;isolation:isolate;opacity:.2"/><path d="m240.87 384.6 25.98 51.47s3.55-1.27 5.24-4.72 1.57-13.13 1.57-13.13l-23.32-34.35z" style="isolation:isolate;opacity:.2"/><path d="M287.53 433.73c6.77 0 12.25-5.48 12.26-12.25v-49.96c0-6.77-5.49-12.25-12.25-12.25h-.01a12.24 12.24 0 0 0-12.26 12.23v49.98c0 6.77 5.49 12.25 12.26 12.25" style="fill:#fff;isolation:isolate;opacity:.2"/><path d="M211.94 383.99H82.24L62.48 281.9a18.08 18.08 0 0 1 17.74-21.52h92.88a18.1 18.1 0 0 1 17.75 14.65z" style="fill:#263238"/><g style="opacity:.1"><path d="M211.94 383.99H82.24L62.48 281.9a18.08 18.08 0 0 1 17.74-21.52h92.88a18.1 18.1 0 0 1 17.75 14.65z" style="fill:#fff"/></g><path d="M211.98 383.78H119.1L97.97 274.93a18 18 0 0 0-17.76-14.54h92.91a18 18 0 0 1 17.76 14.54z" style="fill:#fff;isolation:isolate;opacity:.2"/><path d="M183.72 301.38s6.88 20.74 7.76 21.75c2.98 3.4 18.73 7 18.73 7l7-3.05 6.16 3.27-2.89 3.42-4.38-.68a39 39 0 0 1-6.58 1.98c-3.79.8-23 0-27.1-4.42s-10.45-27.56-10.45-27.56z" style="fill:#fdbbb5"/><path d="M176.18 292.65c.68 4.17 8.78 16.7 6.12 25.95-.69 10.34 6.96 19.5 4.75 24.22-3.76 4.18-28.07 8.55-48.64 10.07-2.58-8.06-1.58-26.07-12.73-51.51-2.59-5.9 2.72-14.59 14.61-19.06a32.4 32.4 0 0 1 16.46-1.07c5.84 1.13 18.2 3.94 19.43 11.4" style="fill:#d9a441"/><path d="M168.47 284.71s7.9 1.04 11.8 8.53a282 282 0 0 1 6.53 13.88l-13 2.24z" style="fill:#b9822a"/><path d="M172.99 241.07s4.24-4.47-8.74-9.26-25.83 1.04-30.6 18.84c-4.51 15.41-10.89 18.11-3.52 24.1s18.25 3.09 29.42 4.42 12.9 6.55 16.85-2.56c2.8-6.47 2.74-16.22 2.74-16.22s.58-18.73-6.15-19.32" style="fill:#263238"/><path d="M144.89 262.15c0 6.42-1.05 16.65-4.75 21.3 0 0 5.79 4.15 19.55 12.74 4.97-8.8-.66-10.57-.66-10.57-4.46-2.3-3.18-5.45-2.05-9.94z" style="fill:#fdbbb5"/><path d="m156.98 275.68-10.73-8.67a5.7 5.7 0 0 0 .15 3.95c1.5 4.08 5.52 7.42 9.44 9.7.32-1.73.66-3.2 1.14-4.98" style="isolation:isolate;opacity:.2"/><path d="M143.77 249.92c-.71 10.4-1.25 14.79 3.19 20.74 6.66 8.96 19.35 7.52 23.09-2.48 3.38-9 3.98-24.5-5.4-29.83s-20.23 1.17-20.88 11.57" style="fill:#fdbbb5"/><path d="M157.07 255.25c-.31 1.06-.04 2.12.6 2.36s1.43-.43 1.75-1.5c.32-1.06.05-2.12-.6-2.36s-1.43.43-1.75 1.5m9.9 2.08c-.3 1.03-.03 2.07.62 2.3.64.25 1.41-.4 1.72-1.43.3-1.04.02-2.07-.62-2.31-.65-.24-1.42.4-1.72 1.44m-10.6-7.74a.5.5 0 0 0 .39 0 3.8 3.8 0 0 1 3.59.23c.23.16.54.1.68-.13a.56.56 0 0 0-.15-.74 4.7 4.7 0 0 0-4.53-.34c-.25.11-.36.42-.25.7q.09.19.27.27m15.62 3.91a.4.4 0 0 0 .3-.14.56.56 0 0 0-.02-.72c-1.83-2.06-3.85-1.68-3.94-1.66-.24.05-.38.32-.32.6s.3.46.54.4c.08 0 1.65-.28 3.1 1.36q.16.16.34.16" style="fill:#263238"/><path d="M164.02 255.95s.26 4.25 1.2 7.18a.8.8 0 0 1-.76 1.04 5 5 0 0 1-2.67-.88z" style="fill:#f48882"/><path d="m158.43 253.66 2.46.25s-1.83 1.27-2.46-.25m10.01 2.17 2.47.25s-1.84 1.27-2.47-.25m-9.9 9.99h-.03a3.8 3.8 0 0 1-3.42-3.61.25.25 0 0 1 .24-.26c.12-.03.25.1.26.25 0 .1.09 2.74 2.99 3.12a.25.25 0 0 1-.04.5m9.7-26.74c-9.65 9.12-17.14 19.36-22.17 20.17s-8.78-10.88-3.63-16.81 16.24-11 25.8-3.36" style="fill:#263238"/><path d="M139.62 257.15a8.5 8.5 0 0 0 3.52 5.42c2.4 1.57 5.23-2.18 5.24-5.13a5.6 5.6 0 0 0-4.76-5.48c-2.7-.37-4.53 2.4-4 5.18" style="fill:#fdbbb5"/><path d="M145.83 258.8a.25.25 0 0 1-.24-.32 3.6 3.6 0 0 0-.34-2.7 3.6 3.6 0 0 0-2.15-1.68.25.25 0 0 1 .14-.48 4 4 0 0 1 2.45 1.91c.52.93.66 2.05.38 3.08a.25.25 0 0 1-.24.19" style="opacity:.2"/><path d="M166.82 239.68a17.7 17.7 0 0 1-5.82 10.1s6.35-1.62 9.55-6.02z" style="fill:#263238"/><path d="M337.06 410.93a56 56 0 0 0-12.57-8.54s2.48-10.92 5.66-8.84c5.75 3.78 17.48 5.46 23.65.36 3.53-2.92 4.2 1.57 2.72 4.58-2.35 4.78-3.26 4.6-7.24 7.14-3.4 2.15-4.71 2.98-6.16 5.95-1.18 2.43-3.6 1.3-6.06-.65" style="fill:#c97b84"/><path d="m334.48 392.96-8.7 12.59a486 486 0 0 1-33.15-14.32c-42.25-20.37-45.26-32.11-51.15-32.74a8 8 0 0 0-3.41.92c-13.84 5.87-57.98 37.8-80.78 31.06-25.32-7.45-19.04-37.56-19.04-37.56 67.9-22.55 110.37-25.86 127.79-14.92s68.44 54.97 68.44 54.97" style="fill:#263238"/><path d="M292.62 391.23c-42.25-20.37-45.26-32.11-51.15-32.74a8 8 0 0 0-3.42.92l.15-.55s18.26-4.83 30.57-.6c8.91 3.07 18.98 22.5 23.85 32.97" style="isolation:isolate;opacity:.2"/><path d="M282.23 445.81a52 52 0 0 0-1.61-14.07s9.22-4.88 9.68-1.37c.83 6.36 6.77 15.65 14.13 16.91 4.2.72 1.44 3.93-1.58 4.71-4.81 1.24-5.23.5-9.45-.77-3.59-1.1-4.97-1.52-7.94-.73-2.43.64-3.1-1.76-3.23-4.68" style="fill:#c4633f"/><path d="m291.65 430.8-11.18 5.27s-27.48-40.77-31.38-51.54c0 0-18.76.38-44.07-.4-4.6-.14-7.32 0-12.28-.34 0 0 23.91-21.55 45.46-24.93a38 38 0 0 1 3.27-.37s19.16-1.5 24.58 3.13 25.6 69.18 25.6 69.18" style="fill:#263238"/><path d="m291.65 430.8-11.18 5.27s-27.48-40.77-31.38-51.54c0 0-18.76.38-44.07-.4-4.6-.14-7.32 0-12.28-.34 0 0 23.91-21.55 45.46-24.93a38 38 0 0 1 3.27-.37s19.16-1.5 24.58 3.13 25.6 69.18 25.6 69.18" style="isolation:isolate;opacity:.1"/><path d="M238.21 358.86c-8.4 10.08-22.2 18.96-33.18 25.26-4.6-.13-7.32 0-12.27-.33-.02 0 23.9-21.55 45.45-24.93" style="isolation:isolate;opacity:.2"/><path d="M142.05 310.92s4.72 21.54 7.22 23.3c4.22 2.99 27.1 4.8 27.1 4.8l7.89-4.76a2 2 0 0 1 1.8-.08l6.75 3.22-.46.58a.8.8 0 0 1-.85.29l-1-.26 1.22.78-.26.33a1.3 1.3 0 0 1-1.12.5l-2.75-.15 2.74 1.1a2.2 2.2 0 0 1-1.88.82l-4.03-.28a49 49 0 0 1-7.67 2.79c-4.42 1.21-29.57 4.86-34.65.27s-12.96-26.4-12.96-26.4z" style="fill:#fdbbb5"/><path d="m210.72 334.15-17.34 3.64-18.4 3.86c.3 1.37 2.05 2.15 3.92 1.75l18.39-3.85 10.52-2.2.04-.02 29.28-6.14c1.85-.4 3.11-1.82 2.82-3.17z" style="fill:#263238"/><path d="m237.63 330.94-32.65 6.85c-.57.11-1.1-.16-1.19-.62v-.26l7.54-36.35c.17-1.03 1.13-1.9 2.37-2.17l32.67-6.85c.55-.12 1.08.15 1.17.6v.28L240 328.77c-.18 1.02-1.13 1.9-2.37 2.17" style="fill:#263238"/><path d="m246.37 291.54-32.67 6.85c-1.24.27-2.2 1.14-2.37 2.17l-7.25 34.98-10.7 2.25-18.4 3.86c.3 1.37 2.05 2.15 3.92 1.75l18.39-3.85 10.51-2.2.05-.02 29.28-6.14a4 4 0 0 0 1.54-.66 2.7 2.7 0 0 0 1.33-1.76l7.54-36.35a1 1 0 0 0 0-.29c-.1-.44-.62-.7-1.17-.6" style="fill:#fff;isolation:isolate;opacity:.7"/><path d="M230.47 313.38c-.37 1.75-1.57 3.15-2.69 3.15s-1.7-1.4-1.35-3.15c.35-1.74 1.57-3.12 2.68-3.12 1.12 0 1.73 1.33 1.36 3.12" style="fill:#fff"/><g style="opacity:.3"><path d="m203.48 335.67.6-.13" style="fill:none;stroke:#000;stroke-linecap:round;stroke-linejoin:round;stroke-width:0"/><path d="m211.33 300.56-7.25 34.98 1.51-.32 8.1-36.83c-1.23.27-2.19 1.15-2.36 2.17"/></g><path d="M126.77 292.79s-3.92 3.63-2.94 11.07 4.11 16.07 4.11 16.07l18.13-8.23s-7.94-29-19.3-18.91" style="fill:#e8c374"/><rect width="88.048" height="74.477" x="58.049" y="362.04" rx="12.266" ry="12.266" style="fill:#263238"/><rect width="88.048" height="74.477" x="58.049" y="362.04" rx="12.266" ry="12.266" style="fill:#fff;isolation:isolate;opacity:.1"/><path d="M133.83 436.52c6.77 0 12.26-5.49 12.27-12.26v-49.95a12.25 12.25 0 0 0-24.53-.01v49.96c0 6.77 5.5 12.26 12.26 12.26" style="fill:#fff;isolation:isolate;opacity:.2"/></svg>