<svg xmlns="http://www.w3.org/2000/svg" width="480" height="360" fill="none" viewBox="0 0 480 360"><circle cx="240" cy="172" r="146" fill="#d0e7e6" opacity=".4"/><ellipse cx="240" cy="316" fill="#293681" opacity=".07" rx="188" ry="18"/><path fill="#f3f3ee" d="M292 164h112v82H292z"/><path fill="#c4633f" d="m280 164 68-48 68 48Z"/><path stroke="#a24b2c" stroke-width="3.5" d="m280 164 68-48 68 48"/><rect width="26" height="42" x="332" y="204" fill="#8a5a34" rx="2"/><circle cx="353" cy="226" r="2" fill="#e8b54d"/><rect width="20" height="18" x="304" y="180" fill="#95ccdd" stroke="#fff" stroke-width="2.5" rx="1"/><rect width="20" height="18" x="372" y="180" fill="#95ccdd" stroke="#fff" stroke-width="2.5" rx="1"/><circle cx="348" cy="146" r="8" fill="#95ccdd" stroke="#fff" stroke-width="2.5"/><path fill="#293681" d="M96 300q0-62 40-62t40 62Z"/><path stroke="#293681" stroke-linecap="round" stroke-width="12" d="M164 258q26-12 42-30"/><circle cx="212" cy="224" r="6.5" fill="#f3e7d8"/><circle cx="136" cy="210" r="22" fill="#f3e7d8"/><path fill="#3a2e26" d="M114 206q4-22 36-16 8 4 7 12-18-10-43 4"/><path fill="#4274d9" d="M176 300q0-54 36-54t36 54Z"/><circle cx="212" cy="222" r="20" fill="#f3e7d8"/><path fill="#5c4632" d="M192 218q3-20 34-14 7 3 6 11-17-9-40 3"/><path stroke="#c9c2b0" stroke-dasharray="2 10" stroke-linecap="round" stroke-width="3" d="M252 296q46-6 84-44"/><circle cx="120" cy="126" r="24" fill="#fff" stroke="#e4dfd2" stroke-width="2"/><circle cx="120" cy="119" r="7.5" fill="#4274d9"/><path fill="#4274d9" d="M106 140q0-12 14-12t14 12"/><circle cx="140" cy="108" r="9" fill="#e8b54d" stroke="#c08a2e" stroke-width="1.8"/><text x="140" y="112" fill="#6b4e16" font-family="system-ui, sans-serif" font-size="10" font-weight="700" text-anchor="middle">1</text><path fill="#8a5a34" d="M432 216h7v32h-7z"/><circle cx="435" cy="200" r="20" fill="#6fa98c"/><circle cx="424" cy="210" r="11" fill="#4e8e6e"/><path stroke="#4274d9" stroke-linecap="round" stroke-width="2.5" d="M224 96v12m-6-6h12M64 214v10m-5-5h10" opacity=".6"/></svg>